<?xml version="1.0" encoding="utf-8" ?>
<svg xmlns="http://www.w3.org/2000/svg" xmlns:xlink="http://www.w3.org/1999/xlink" viewBox="0 0 67 60" width="100%" height="100%">
	<path fill="#3D2308" d="M0 0L10.7718 0L17.3271 0L26.8878 0L29.7042 0L34.5012 0L37.2681 0L46.5109 0L53.2844 0L61.5625 0C62.4279 1.31348 62.2328 5.84238 61.9082 7.38555C61.8621 7.60444 61.7708 7.82364 61.6696 8.02271C62.0043 8.91628 62.1597 9.61811 61.7475 10.5284Q61.6993 10.6347 61.6443 10.7376C62.3005 12.0984 62.3307 17.5861 61.8513 18.9614C61.7834 19.1562 61.6873 19.351 61.58 19.5267C62.2896 20.6288 62.1983 23.7158 61.9191 25.0229C61.8704 25.2508 61.7704 25.4673 61.6489 25.6652C62.2582 27.0346 62.3475 52.3664 61.7827 53.866C61.7622 53.9204 61.7394 53.9733 61.7151 54.0262C62.0668 55.1093 62.1312 55.9741 61.6661 57.0358C62.0137 57.968 62.1869 58.6735 61.7531 59.6168Q61.6634 59.8112 61.5625 60L45.1935 60L43.1781 60L19.4124 60L17.1123 60L0 60L0 58.5363L0 56.4611L0 24.8592L0 18.7832L0 0Z"/>
	<path fill="#E0B925" d="M16.1076 39.4731C16.0519 39.4287 15.9982 39.3831 15.9475 39.3331C15.1901 38.5852 15.1592 36.0357 15.1516 34.9926C15.1439 33.9156 15.2106 32.5796 15.9884 31.7894L17.0091 31.9011C16.7816 33.3507 17.3514 33.9329 18.1808 35.0712C18.3963 35.3669 18.6759 35.6792 18.8243 36.0121C18.4541 36.7498 18.1576 37.4082 18.0134 38.225C17.3989 38.7215 16.8239 39.1349 16.1076 39.4731Z"/>
	<path fill="#E0B925" d="M17.2947 40.8034L18.0098 40.7642C18.3681 42.9339 20.3564 43.4621 20.5276 46.9236C19.532 46.6055 18.728 46.3041 18.0606 45.4689C17.033 45.5172 15.6451 45.7132 14.6858 45.3063C14.0986 45.0572 13.6866 44.7465 13.4411 44.1358C13.4529 43.8759 13.4908 43.6015 13.6022 43.3641C14.3634 41.7417 15.7294 41.3589 17.2947 40.8034Z"/>
	<path fill="#E0B925" d="M24.5331 49.2717C25.9679 49.8441 27.1132 50.2281 28.6858 50.1396C27.3289 51.9135 26.1068 54.0817 24.5152 55.6246C22.7465 54.8735 20.7306 54.1131 19.2414 52.8624C19.7147 52.4292 20.179 52.1842 20.7542 51.9196C21.6072 51.5982 22.5418 51.3329 23.3567 50.933C24.0674 50.5841 24.2888 49.972 24.5331 49.2717Z"/>
	<path fill="#E0B925" d="M18.0606 45.4689C18.728 46.3041 19.532 46.6055 20.5276 46.9236L20.8278 46.8926C22.2181 47.5535 23.352 48.27 24.5331 49.2717C24.2888 49.972 24.0674 50.5841 23.3567 50.933C22.5418 51.3329 21.6072 51.5982 20.7542 51.9196C20.179 52.1842 19.7147 52.4292 19.2414 52.8624C18.3624 52.356 17.4498 51.86 16.6266 51.2667C16.2607 51.003 15.7835 50.5399 15.7111 50.0754C15.4516 48.4083 17.1238 46.7396 18.0606 45.4689Z"/>
	<path fill="#3D2308" d="M20.8278 46.8926C22.2181 47.5535 23.352 48.27 24.5331 49.2717C24.2888 49.972 24.0674 50.5841 23.3567 50.933C22.5418 51.3329 21.6072 51.5982 20.7542 51.9196C20.5858 51.8511 20.4824 51.7524 20.3562 51.6258C19.9041 51.1722 19.7939 50.5305 19.7986 49.8999C19.8069 48.7891 20.0354 47.6756 20.8278 46.8926Z"/>
	<path fill="#E0B925" d="M23.7671 32.0619C24.2315 32.0561 24.7254 32.005 25.1308 32.2701C26.6593 33.2008 28.2262 34.1016 29.6837 35.1404C28.9278 35.9526 28.3727 37.0735 28.0223 38.1177L28.3461 38.5508C28.9949 38.5001 29.5148 38.4714 30.1444 38.6871L28.0883 38.6974L28.0636 38.7442C27.6829 39.4496 26.8752 39.6961 26.1784 39.9949C26.8313 40.167 27.487 40.2949 28.1503 40.4187L26.1652 40.5485C24.3166 40.1132 21.759 40.4194 19.8489 40.4483L18.0098 40.7642L17.2947 40.8034C17.0223 40.8597 16.8357 40.7897 16.5837 40.6983L16.1076 39.4731C16.8239 39.1349 17.3989 38.7215 18.0134 38.225C18.1576 37.4082 18.4541 36.7498 18.8243 36.0121C18.6759 35.6792 18.3963 35.3669 18.1808 35.0712C17.3514 33.9329 16.7816 33.3507 17.0091 31.9011C18.3172 32.2951 19.7315 32.6818 21.109 32.6353L23.7671 32.0619Z"/>
	<path fill="#E0B925" d="M17.0091 31.9011C18.3172 32.2951 19.7315 32.6818 21.109 32.6353C20.2919 33.7017 19.5771 34.9139 19.7644 36.3197C19.8272 36.7907 19.999 37.2726 20.1544 37.7209L18.8243 36.0121C18.6759 35.6792 18.3963 35.3669 18.1808 35.0712C17.3514 33.9329 16.7816 33.3507 17.0091 31.9011Z"/>
	<path fill="#3D2308" d="M18.8243 36.0121L20.1544 37.7209C20.4389 38.2394 20.565 38.6192 21.1876 38.792C23.0037 39.2958 26.1654 38.7576 28.0883 38.6974L28.0636 38.7442C27.6829 39.4496 26.8752 39.6961 26.1784 39.9949C26.8313 40.167 27.487 40.2949 28.1503 40.4187L26.1652 40.5485C24.3166 40.1132 21.759 40.4194 19.8489 40.4483L18.0098 40.7642L17.2947 40.8034C17.0223 40.8597 16.8357 40.7897 16.5837 40.6983L16.1076 39.4731C16.8239 39.1349 17.3989 38.7215 18.0134 38.225C18.1576 37.4082 18.4541 36.7498 18.8243 36.0121Z"/>
	<path fill="#3D2308" d="M18.0134 38.225C18.7922 38.6385 19.9481 39.0364 20.4221 39.7685C20.2622 40.1738 20.2311 40.2324 19.8489 40.4483L18.0098 40.7642L17.2947 40.8034C17.0223 40.8597 16.8357 40.7897 16.5837 40.6983L16.1076 39.4731C16.8239 39.1349 17.3989 38.7215 18.0134 38.225Z"/>
	<path fill="#E0B925" d="M39.9482 33.9545C41.7698 33.1149 43.3712 32.6846 45.3819 32.5779C46.0085 33.6062 46.6582 34.6271 47.2395 35.6818C48.1971 37.6077 49.304 39.4479 50.3971 41.2986C48.3721 44.1414 46.2553 46.9209 44.702 50.0591C40.5452 51.9346 35.8006 52.1329 31.7037 54.1129C31.0176 52.8342 30.3587 51.2747 29.3566 50.226C29.1626 50.1852 28.875 50.0869 28.6858 50.1396C27.1132 50.2281 25.9679 49.8441 24.5331 49.2717C23.352 48.27 22.2181 47.5535 20.8278 46.8926L20.5276 46.9236C20.3564 43.4621 18.3681 42.9339 18.0098 40.7642L19.8489 40.4483C21.759 40.4194 24.3166 40.1132 26.1652 40.5485L28.1503 40.4187C27.487 40.2949 26.8313 40.167 26.1784 39.9949C26.8752 39.6961 27.6829 39.4496 28.0636 38.7442L28.0883 38.6974L30.1444 38.6871C31.1854 38.7053 35.0084 38.5538 35.6593 39.1893C35.6696 39.1994 35.6794 39.2101 35.6894 39.2205Q35.9567 39.2352 36.2244 39.2344C37.7132 39.2158 39.3467 36.5255 40.4246 35.4242L40.5612 35.2076C40.4422 34.5666 40.3745 34.4507 39.9482 33.9545Z"/>
	<path fill="#3D2308" d="M25.4355 42.9846C26.0646 43.6302 26.2916 43.9156 26.2773 44.8737Q26.2743 45.0979 26.2647 45.322C26.1982 45.4374 26.118 45.5687 26.0129 45.6532C25.7806 45.84 25.5304 45.9573 25.238 45.9144C24.6918 45.8344 23.8281 45.4389 23.4995 44.9839C23.2201 44.597 23.2991 44.3945 23.3664 43.9544C24.0422 43.2732 24.5223 43.2371 25.4355 42.9846Z"/>
	<path fill="#E0B925" d="M40.4246 35.4242C41.1015 36.351 41.1242 37.5572 41.4142 38.6337C42.5371 39.4549 43.9935 40.2779 44.6517 41.5246C44.6842 41.8429 44.7571 42.2 44.6616 42.5105C44.5717 43.4926 44.6672 44.5536 43.8668 45.2156C41.1672 47.4483 35.4028 48.0176 32.0461 47.6821C29.9683 47.4744 28.3266 46.792 26.4791 45.8691L26.2647 45.322Q26.2743 45.0979 26.2773 44.8737C26.2916 43.9156 26.0646 43.6302 25.4355 42.9846C24.2317 42.4521 20.8487 42.5844 19.5879 42.2708L19.5178 41.402L18.9498 41.1282C20.2773 41.1225 25.2238 41.2249 26.1652 40.5485L28.1503 40.4187C27.487 40.2949 26.8313 40.167 26.1784 39.9949C26.8752 39.6961 27.6829 39.4496 28.0636 38.7442L28.0883 38.6974L30.1444 38.6871C31.1854 38.7053 35.0084 38.5538 35.6593 39.1893C35.6696 39.1994 35.6794 39.2101 35.6894 39.2205Q35.9567 39.2352 36.2244 39.2344C37.7132 39.2158 39.3467 36.5255 40.4246 35.4242Z"/>
	<path fill="#3D2308" d="M30.1444 38.6871C31.1854 38.7053 35.0084 38.5538 35.6593 39.1893C35.6696 39.1994 35.6794 39.2101 35.6894 39.2205L35.1151 39.7397L35.1901 40.0926L36.4033 40.5399C33.6538 40.5306 30.8968 40.5613 28.1503 40.4187C27.487 40.2949 26.8313 40.167 26.1784 39.9949C26.8752 39.6961 27.6829 39.4496 28.0636 38.7442L28.0883 38.6974L30.1444 38.6871Z"/>
	<path fill="#3D2308" d="M40.4246 35.4242C41.1015 36.351 41.1242 37.5572 41.4142 38.6337C42.5371 39.4549 43.9935 40.2779 44.6517 41.5246C44.6842 41.8429 44.7571 42.2 44.6616 42.5105C40.8279 41.6017 41.9527 39.9794 36.4033 40.5399L35.1901 40.0926L35.1151 39.7397L35.6894 39.2205Q35.9567 39.2352 36.2244 39.2344C37.7132 39.2158 39.3467 36.5255 40.4246 35.4242Z"/>
	<path fill="#E0B925" d="M0 0L10.7718 0L17.3271 0L26.8878 0L29.7042 0C27.766 3.09201 25.8665 6.20312 23.5456 9.02953C22.8484 9.87855 21.9737 10.5402 21.2817 11.3666C21.9522 11.8083 22.0078 12.1385 22.3208 12.8597L22.2388 14.0879L21.4767 13.4052C21.0721 13.5045 20.8792 13.6868 20.5974 13.9819C20.3767 13.7819 19.9034 13.7594 19.6027 13.7026C17.7279 14.8286 14.198 15.2294 12.8594 16.9165C12.716 17.7761 12.6383 18.5782 12.6588 19.4502L12.3362 19.4649C12.1415 19.2697 11.9474 19.0401 11.7014 18.9107C11.5759 19.14 11.45 19.3674 11.3433 19.6062L10.9119 19.3583C11.1002 22.2327 11.4381 25.1958 11.4039 28.0715C9.78758 31.1871 7.47876 33.9041 5.76533 36.9691C8.58933 41.9893 11.5369 47.0438 14.519 51.9693C16.1413 54.6488 17.9791 57.2127 19.4124 60L17.1123 60L0 60L0 58.5363L0 56.4611L0 24.8592L0 18.7832L0 0Z"/>
	<path fill="#3D2308" d="M21.2817 11.3666C21.9522 11.8083 22.0078 12.1385 22.3208 12.8597L22.2388 14.0879L21.4767 13.4052C21.0721 13.5045 20.8792 13.6868 20.5974 13.9819C20.3767 13.7819 19.9034 13.7594 19.6027 13.7026C19.4806 13.2409 18.9802 12.7111 18.6961 12.3206C19.6035 12.0976 20.4286 11.7427 21.2817 11.3666Z"/>
	<path fill="#3D2308" d="M10.9119 19.3583C10.8876 18.056 10.8282 16.8915 11.5595 15.7489C13.0674 13.3931 16.173 12.8856 18.6961 12.3206C18.9802 12.7111 19.4806 13.2409 19.6027 13.7026C17.7279 14.8286 14.198 15.2294 12.8594 16.9165C12.716 17.7761 12.6383 18.5782 12.6588 19.4502L12.3362 19.4649C12.1415 19.2697 11.9474 19.0401 11.7014 18.9107C11.5759 19.14 11.45 19.3674 11.3433 19.6062L10.9119 19.3583Z"/>
	<path fill="#E0B925" d="M0 18.7832L0.414077 18.7627C2.23478 18.7822 3.59692 19.4815 5.17595 20.2865C4.96455 20.5867 4.64957 21.5539 4.51521 21.5971C4.50399 21.6007 4.49286 21.6046 4.48161 21.6081C3.85988 21.8022 2.98476 21.0529 2.48429 21.2509C2.44789 21.3404 2.42186 21.4284 2.39741 21.5217C2.39369 21.536 2.38962 21.5501 2.38602 21.5644C2.24206 22.1331 2.70201 23.2031 2.88627 23.7662C3.6624 25.5076 3.19208 27.9975 2.78524 29.866C2.80539 29.0501 2.89733 28.0858 2.72936 27.2883C2.46034 26.0109 1.242 25.4249 0.232786 24.7682L0 24.8592L0 18.7832Z"/>
	<path fill="#E0B925" d="M0 18.7832L0.414077 18.7627C0.107389 20.6868 0.176785 22.8184 0.232786 24.7682L0 24.8592L0 18.7832Z"/>
	<path fill="#3D2308" d="M17.3271 0L26.8878 0C25.3846 1.69012 24.0098 3.30948 22.8645 5.26847C21.9568 4.52701 19.2155 1.54704 18.4049 1.23116L17.3271 0Z"/>
	<path fill="#3D2308" d="M10.6717 51.5054C12.6679 54.3607 14.8404 57.3564 17.1123 60L0 60L0 58.5363C3.54838 56.1486 6.97029 53.6683 10.6717 51.5054Z"/>
	<path fill="#3D2308" d="M0 24.8592L0.232786 24.7682C1.242 25.4249 2.46034 26.0109 2.72936 27.2883C2.89733 28.0858 2.80539 29.0501 2.78524 29.866C2.64318 32.0245 2.7264 34.0963 2.87732 36.248C3.78026 39.7905 5.21321 42.5354 7.02729 45.6779C5.17489 49.5534 2.71997 53.1463 0 56.4611L0 24.8592Z"/>
	<path fill="#3D2308" d="M0 0L10.7718 0C11.8806 2.76221 13.2682 5.39215 14.3742 8.17435C13.3389 10.7188 10.4069 12.9795 8.65667 15.1342C7.34102 16.754 6.24982 18.502 5.17595 20.2865C3.59692 19.4815 2.23478 18.7822 0.414077 18.7627L0 18.7832L0 0Z"/>
	<path fill="#E0B925" d="M4.0705 5.8966C6.03502 6.4953 7.04672 7.79127 8.06644 9.45905C7.35721 10.9148 6.4487 12.2475 5.24967 13.341C3.31094 12.4306 2.21708 10.9886 0.910911 9.36224C1.894 8.10302 2.89544 6.97988 4.0705 5.8966Z"/>
	<path fill="#3D2308" d="M29.7042 0L34.5012 0L37.2681 0L46.5109 0L53.2844 0L61.5625 0C62.4279 1.31348 62.2328 5.84238 61.9082 7.38555C61.8621 7.60444 61.7708 7.82364 61.6696 8.02271C62.0043 8.91628 62.1597 9.61811 61.7475 10.5284Q61.6993 10.6347 61.6443 10.7376C62.3005 12.0984 62.3307 17.5861 61.8513 18.9614C61.7834 19.1562 61.6873 19.351 61.58 19.5267C62.2896 20.6288 62.1983 23.7158 61.9191 25.0229C61.8704 25.2508 61.7704 25.4673 61.6489 25.6652C62.2582 27.0346 62.3475 52.3664 61.7827 53.866C61.7622 53.9204 61.7394 53.9733 61.7151 54.0262C62.0668 55.1093 62.1312 55.9741 61.6661 57.0358C62.0137 57.968 62.1869 58.6735 61.7531 59.6168Q61.6634 59.8112 61.5625 60L45.1935 60L43.1781 60C45.3717 56.9723 47.28 53.6519 49.305 50.5043Q53.6978 43.714 58.3125 37.0723C57.2374 35.1618 56.0302 33.0213 54.531 31.4205C54.1769 31.8427 53.5809 32.6179 52.9982 32.6826C52.9689 32.6858 52.9645 32.6851 52.9381 32.6849C52.8039 33.5216 52.6574 34.179 51.9346 34.702C51.5306 34.9943 50.969 35.0473 50.4861 34.9637C49.9323 34.8678 49.4405 34.4446 49.0555 34.059Q48.4159 34.9597 47.7448 35.8372L47.2395 35.6818C46.6582 34.6271 46.0085 33.6062 45.3819 32.5779C43.3712 32.6846 41.7698 33.1149 39.9482 33.9545C40.3745 34.4507 40.4422 34.5666 40.5612 35.2076L40.4246 35.4242C39.3467 36.5255 37.7132 39.2158 36.2244 39.2344Q35.9567 39.2352 35.6894 39.2205C35.6794 39.2101 35.6696 39.1994 35.6593 39.1893C35.0084 38.5538 31.1854 38.7053 30.1444 38.6871C29.5148 38.4714 28.9949 38.5001 28.3461 38.5508L28.0223 38.1177C28.3727 37.0735 28.9278 35.9526 29.6837 35.1404C28.2262 34.1016 26.6593 33.2008 25.1308 32.2701C24.7254 32.005 24.2315 32.0561 23.7671 32.0619C23.0856 32.0568 22.6767 32.009 22.0783 31.641L21.9408 31.0023L22.0522 31.0402L22.1556 30.8551L21.2935 30.5532C20.4164 30.3172 19.102 30.0436 18.583 29.2151C18.3347 28.8188 18.4496 28.6539 18.5481 28.2219L17.9916 27.2166C16.9016 27.6022 15.3854 28.3284 14.2709 27.8012C12.536 25.8522 12.9788 19.5175 12.8594 16.9165C14.198 15.2294 17.7279 14.8286 19.6027 13.7026C19.9034 13.7594 20.3767 13.7819 20.5974 13.9819C20.8792 13.6868 21.0721 13.5045 21.4767 13.4052L22.2388 14.0879L22.3208 12.8597C22.0078 12.1385 21.9522 11.8083 21.2817 11.3666C21.9737 10.5402 22.8484 9.87855 23.5456 9.02953C25.8665 6.20312 27.766 3.09201 29.7042 0Z"/>
	<path fill="#E0B925" d="M18.5481 28.2219C20.3475 27.3031 22.7648 26.5829 24.758 27.2467C25.3918 27.4578 25.6382 27.7007 25.9773 28.2582C25.7598 28.9491 25.4848 29.2571 24.8353 29.6003C23.7929 30.1513 22.4434 30.3238 21.2935 30.5532C20.4164 30.3172 19.102 30.0436 18.583 29.2151C18.3347 28.8188 18.4496 28.6539 18.5481 28.2219Z"/>
	<path fill="#E0B925" d="M49.9037 30.5836C51.1244 30.4818 51.7852 29.9361 52.6918 29.1922C53.2991 29.9161 54.0022 30.641 54.531 31.4205C54.1769 31.8427 53.5809 32.6179 52.9982 32.6826C52.9689 32.6858 52.9645 32.6851 52.9381 32.6849C52.8039 33.5216 52.6574 34.179 51.9346 34.702C51.5306 34.9943 50.969 35.0473 50.4861 34.9637C49.9323 34.8678 49.4405 34.4446 49.0555 34.059C48.4809 33.3585 47.8706 32.4706 47.875 31.5665C48.4965 30.9084 49.0482 30.8488 49.9037 30.5836Z"/>
	<path fill="#3D2308" d="M49.9037 30.5836C51.1244 30.4818 51.7852 29.9361 52.6918 29.1922C53.2991 29.9161 54.0022 30.641 54.531 31.4205C54.1769 31.8427 53.5809 32.6179 52.9982 32.6826C52.9689 32.6858 52.9645 32.6851 52.9381 32.6849C52.6909 32.245 52.4363 31.7942 52.1298 31.3924C51.6349 30.7435 50.6543 30.689 49.9037 30.5836Z"/>
	<path fill="#E0B925" d="M39.5896 26.8154C42.5118 26.9629 44.3263 27.8389 46.6928 29.4839C45.6459 29.8772 44.5597 30.1748 43.4886 30.4954C41.8574 30.5943 40.3121 30.5589 38.6855 30.4042C38.1529 30.0728 37.2766 29.5232 36.9963 28.9499C36.7638 28.4746 36.8571 28.3126 37.0126 27.8405C37.6645 27.1726 38.7118 27.0278 39.5896 26.8154Z"/>
	<path fill="#E0B925" d="M26.986 31.5154C26.6788 30.8665 26.7087 30.4932 26.8544 29.8205C27.2571 29.2664 28.0945 29.0711 28.7391 28.968C31.0045 28.6056 33.8904 30.0986 36.0388 30.7062C34.5099 32.112 32.8009 33.0993 31.0052 34.1222C29.5491 33.4664 28.2735 32.4471 26.986 31.5154Z"/>
	<path fill="#E0B925" d="M30.6985 35.6546C32.8149 35.3394 35.2138 33.1856 36.8592 31.8581L39.9482 33.9545C40.3745 34.4507 40.4422 34.5666 40.5612 35.2076L40.4246 35.4242C39.3467 36.5255 37.7132 39.2158 36.2244 39.2344Q35.9567 39.2352 35.6894 39.2205C35.6794 39.2101 35.6696 39.1994 35.6593 39.1893C35.0084 38.5538 31.1854 38.7053 30.1444 38.6871C29.5148 38.4714 28.9949 38.5001 28.3461 38.5508L28.0223 38.1177C28.3727 37.0735 28.9278 35.9526 29.6837 35.1404L30.6985 35.6546Z"/>
	<path fill="#E0B925" d="M47.5142 16.9238C49.4499 17.4356 52.6794 18.0867 53.7711 19.9397C54.4306 21.0591 54.1934 22.6289 53.8791 23.8175C53.4391 25.4818 52.4983 27.4805 50.9365 28.3722C50.4542 28.6475 49.8892 28.7722 49.3448 28.6243C48.8396 28.487 48.1583 28.2623 47.7285 27.9602C49.6887 24.2501 47.8756 20.6656 47.5142 16.9238Z"/>
	<path fill="#E0B925" d="M19.6027 13.7026C19.9034 13.7594 20.3767 13.7819 20.5974 13.9819C21.193 17.5384 21.629 21.1856 22.3661 24.7109C20.9484 25.566 19.5076 26.5546 17.9916 27.2166C16.9016 27.6022 15.3854 28.3284 14.2709 27.8012C12.536 25.8522 12.9788 19.5175 12.8594 16.9165C14.198 15.2294 17.7279 14.8286 19.6027 13.7026Z"/>
	<path fill="#E0B925" d="M29.7042 0L34.5012 0C37.236 4.5342 39.9454 10.0699 43.9683 13.598C43.1663 13.8265 42.8029 14.1955 42.2792 14.8254C43.9566 15.819 45.6058 16.5027 47.5142 16.9238C47.8756 20.6656 49.6887 24.2501 47.7285 27.9602C45.5977 26.7047 43.3987 25.7945 41.1102 24.8796C40.8095 24.3333 41.5073 22.9481 41.5722 22.25C41.6217 21.7181 41.5862 21.6132 41.2587 21.2229C40.5393 21.3203 40.0572 22.4423 39.5617 23.0208C38.096 24.732 33.7849 27.668 31.4883 27.8305C29.7426 27.9539 27.4566 26.0367 26.1904 24.9469C24.0022 23.0634 23.1753 21.6414 22.9605 18.7795L22.2388 14.0879L22.3208 12.8597C22.0078 12.1385 21.9522 11.8083 21.2817 11.3666C21.9737 10.5402 22.8484 9.87855 23.5456 9.02953C25.8665 6.20312 27.766 3.09201 29.7042 0Z"/>
	<path fill="#E0B925" d="M37.6196 10.8888C38.8983 12.0177 40.409 13.1396 41.5319 14.4126C39.9733 14.0203 37.8328 12.0721 36.0725 12.6867C35.7416 13.0142 35.7453 13.1496 35.6578 13.5915C34.5169 13.4738 33.8367 12.4195 32.813 12.3476C30.4515 12.1817 28.8583 14.6928 26.6844 14.882C30.5848 10.828 34.6363 12.4858 37.6196 10.8888Z"/>
	<path fill="#3D2308" d="M29.7042 0L34.5012 0C37.236 4.5342 39.9454 10.0699 43.9683 13.598C43.1663 13.8265 42.8029 14.1955 42.2792 14.8254L41.5319 14.4126C40.409 13.1396 38.8983 12.0177 37.6196 10.8888C34.6363 12.4858 30.5848 10.828 26.6844 14.882C25.4945 15.4554 23.6759 16.3823 23.2016 17.7232C23.0816 18.0626 23.0138 18.4242 22.9605 18.7795L22.2388 14.0879L22.3208 12.8597C22.0078 12.1385 21.9522 11.8083 21.2817 11.3666C21.9737 10.5402 22.8484 9.87855 23.5456 9.02953C25.8665 6.20312 27.766 3.09201 29.7042 0Z"/>
	<path fill="#E0B925" d="M22.3208 12.8597C25.0498 10.1723 29.1677 7.88616 32.5304 6.14404Q35.0274 8.56748 37.6196 10.8888C34.6363 12.4858 30.5848 10.828 26.6844 14.882C25.4945 15.4554 23.6759 16.3823 23.2016 17.7232C23.0816 18.0626 23.0138 18.4242 22.9605 18.7795L22.2388 14.0879L22.3208 12.8597Z"/>
	<path fill="#E0B925" d="M34.5012 0L37.2681 0L46.5109 0L53.2844 0L61.5625 0C62.4279 1.31348 62.2328 5.84238 61.9082 7.38555C61.8621 7.60444 61.7708 7.82364 61.6696 8.02271C62.0043 8.91628 62.1597 9.61811 61.7475 10.5284Q61.6993 10.6347 61.6443 10.7376C62.3005 12.0984 62.3307 17.5861 61.8513 18.9614C61.7834 19.1562 61.6873 19.351 61.58 19.5267C62.2896 20.6288 62.1983 23.7158 61.9191 25.0229C61.8704 25.2508 61.7704 25.4673 61.6489 25.6652C62.2582 27.0346 62.3475 52.3664 61.7827 53.866C61.7622 53.9204 61.7394 53.9733 61.7151 54.0262C62.0668 55.1093 62.1312 55.9741 61.6661 57.0358C62.0137 57.968 62.1869 58.6735 61.7531 59.6168Q61.6634 59.8112 61.5625 60L45.1935 60L43.1781 60C45.3717 56.9723 47.28 53.6519 49.305 50.5043Q53.6978 43.714 58.3125 37.0723C57.2374 35.1618 56.0302 33.0213 54.531 31.4205C54.0022 30.641 53.2991 29.9161 52.6918 29.1922C53.7111 28.1019 54.4403 26.7534 55.0728 25.4126C55.8637 23.7363 56.5483 21.7379 55.8833 19.9117C54.252 15.4323 47.6514 15.3303 43.9683 13.598C39.9454 10.0699 37.236 4.5342 34.5012 0Z"/>
	<path fill="#3D2308" d="M37.2681 0L46.5109 0Q43.7872 2.65675 40.9716 5.21591C39.7137 3.495 38.4339 1.78535 37.2681 0Z"/>
	<path fill="#3D2308" d="M57.0873 45.396C58.703 41.7491 60.3665 38.4992 60.9846 34.5055C61.2802 32.5957 60.7516 26.8659 61.6489 25.6652C62.2582 27.0346 62.3475 52.3664 61.7827 53.866C61.7622 53.9204 61.7394 53.9733 61.7151 54.0262C61.0334 51.6737 57.7605 49.2388 57.0873 45.396Z"/>
	<path fill="#3D2308" d="M52.9196 51.345C54.0601 49.1885 55.9555 47.4848 57.0873 45.396C57.7605 49.2388 61.0334 51.6737 61.7151 54.0262C62.0668 55.1093 62.1312 55.9741 61.6661 57.0358C62.0137 57.968 62.1869 58.6735 61.7531 59.6168Q61.6634 59.8112 61.5625 60L45.1935 60C48.2903 58.0009 50.4162 54.0477 52.9196 51.345Z"/>
	<path fill="#E0B925" d="M52.9196 51.345C54.0601 49.1885 55.9555 47.4848 57.0873 45.396C57.7605 49.2388 61.0334 51.6737 61.7151 54.0262C62.0668 55.1093 62.1312 55.9741 61.6661 57.0358C59.8116 54.9644 55.4434 52.9097 52.9196 51.345Z"/>
	<path fill="#3D2308" d="M53.2844 0L61.5625 0C62.4279 1.31348 62.2328 5.84238 61.9082 7.38555C61.8621 7.60444 61.7708 7.82364 61.6696 8.02271C62.0043 8.91628 62.1597 9.61811 61.7475 10.5284Q61.6993 10.6347 61.6443 10.7376C62.3005 12.0984 62.3307 17.5861 61.8513 18.9614C61.7834 19.1562 61.6873 19.351 61.58 19.5267C60.7352 19.8038 59.7553 19.7998 58.8706 19.8631C55.7409 16.0916 52.4731 12.3481 49.4359 8.50753C50.276 5.45151 51.7435 2.74453 53.2844 0Z"/>
	<path fill="#E0B925" d="M59.3976 5.99904C60.1964 6.57554 61.1748 7.15075 61.6696 8.02271C62.0043 8.91628 62.1597 9.61811 61.7475 10.5284Q61.6993 10.6347 61.6443 10.7376C61.1042 11.7661 59.6385 12.6127 58.651 13.1827C57.91 12.582 56.9539 11.9138 56.449 11.0992C56.0964 10.5302 55.9165 9.8185 56.0799 9.15865C56.4475 7.6737 58.1766 6.73028 59.3976 5.99904Z"/>
</svg>
