<?xml version="1.0" encoding="utf-8" ?>
<svg xmlns="http://www.w3.org/2000/svg" xmlns:xlink="http://www.w3.org/1999/xlink" viewBox="0 0 75 64" width="100%" height="100%">
	<path fill="#392D28" d="M0 0L0.253559 0L8.96124 0L64.7308 0L74.5625 0C74.9022 0.526652 74.963 0.993456 74.9823 1.60499C75.1374 6.51292 75.0064 11.4652 75.0078 16.3768L75.0077 44.9475L75.0024 57.6832C75.0015 59.3649 75.2604 61.5213 74.9253 63.1455C74.8626 63.4495 74.7295 63.74 74.5625 64L0 64L0 63.6867L0 0Z"/>
	<path fill="#A78143" d="M54.29 31.1708L54.3635 31.1929L54.4858 31.4913C53.5589 33.7923 52.2095 35.9959 50.387 37.7022C48.2205 39.7303 46.1709 40.2057 43.3119 40.1146C43.1357 40.0501 42.9322 39.8561 42.7781 39.7416C42.7714 39.706 42.7647 39.6705 42.7605 39.6344C42.6368 38.5717 44.7845 35.8612 45.4923 34.9986C47.9374 32.0191 50.6677 31.5236 54.29 31.1708Z"/>
	<path fill="#A78143" d="M21.7764 31.2195C22.5718 31.1809 23.442 31.1885 24.2343 31.2887C26.8912 31.6249 29.6163 33.1812 31.2534 35.3026C32.1764 36.4987 33.1245 38.433 32.9276 39.9792L32.7695 40.0025C30.3347 40.3542 28.4123 39.8396 26.4331 38.3528C24.293 36.7451 22.1621 33.9176 21.7764 31.2195Z"/>
	<path fill="#C09A5E" d="M8.96124 0L64.7308 0C67.5902 0.647628 71.5875 3.37152 73.146 5.8478C73.4008 6.25274 73.6876 6.73548 73.6629 7.22797C74.3438 8.84437 74.0732 11.1272 73.4286 12.7202C72.3545 15.375 70.1094 17.2611 67.5123 18.3539C65.1728 19.3384 62.5806 19.7249 60.1727 18.7431L60.1464 18.7323C59.8854 17.6683 59.4368 16.8352 58.6968 16.0222C56.6663 13.7911 47.1493 7.0136 44.3371 5.3113C43.922 5.06 43.4574 4.74476 43.0004 4.58922L43.1241 4.91703L42.7086 4.5664C39.8163 7.24866 40.629 14.7291 39.8382 18.5088C38.7677 18.9347 37.7004 19.3764 36.6104 19.7502C36.3413 16.6559 35.7951 6.55251 33.5957 4.68556C33.4761 4.58401 33.3466 4.50256 33.2064 4.43297C32.1442 4.63655 17.3965 15.5613 16.7635 16.4704C16.1487 17.3534 15.9871 18.5076 15.8877 19.5556C14.3702 19.8973 11.0893 19.2654 9.54528 18.8981C6.68503 18.2176 3.91773 16.9207 2.32827 14.3236Q2.12024 13.9814 1.94687 13.6204Q1.77349 13.2594 1.63644 12.8831Q1.49939 12.5067 1.4 12.1188Q1.30061 11.7308 1.23984 11.335Q1.17907 10.9391 1.1575 10.5392Q1.13594 10.1393 1.1538 9.73924Q1.17165 9.33916 1.22875 8.94276Q1.28585 8.54637 1.38164 8.15751C2.38094 4.1027 5.66278 2.00612 8.96124 0Z"/>
	<path fill="#A78143" d="M0 0L0.253559 0L8.96124 0C5.66278 2.00612 2.38094 4.1027 1.38164 8.15751Q1.28585 8.54637 1.22875 8.94276Q1.17165 9.33916 1.1538 9.73924Q1.13594 10.1393 1.1575 10.5392Q1.17907 10.9391 1.23984 11.335Q1.30061 11.7308 1.4 12.1188Q1.49939 12.5067 1.63644 12.8831Q1.77349 13.2594 1.94687 13.6204Q2.12024 13.9814 2.32827 14.3236C3.91773 16.9207 6.68503 18.2176 9.54528 18.8981C11.0893 19.2654 14.3702 19.8973 15.8877 19.5556C15.9017 23.1068 14.636 29.8595 13.3139 33.0697C11.476 33.5 9.64955 33.8622 7.78401 34.151C7.64251 35.7269 7.6476 37.2225 7.75291 38.8006C12.3366 41.567 16.9268 47.0485 19.1681 51.8903C19.9026 51.4518 20.8115 50.9707 21.2459 50.1991C22.3646 48.2115 19.8611 42.8599 19.2435 40.7242C21.4953 42.2832 23.9254 43.4845 26.0425 45.2607C30.6872 49.1577 30.2946 54.7227 30.7767 60.2297L36.4252 60.3322L37.5942 53.682Q38.354 56.8933 39.0687 60.115C41.0955 60.3067 43.0933 60.4568 45.1299 60.4594C45.5871 57.2255 45.7144 53.4264 46.6804 50.3328C48.1894 45.4996 53.351 42.8148 57.5413 40.6107C55.9818 43.4623 54.6384 46.1217 54.9571 49.5C55.0245 50.2144 55.1749 50.9034 55.7514 51.3829C56.1183 51.4513 56.3362 51.5483 56.6824 51.3615C58.6295 50.311 60.0638 46.6429 61.4395 44.9013C62.9692 42.9646 66.8355 40.5668 67.4791 38.2729C67.8362 37.0001 67.7297 35.341 67.0686 34.1836C65.9605 33.3414 63.7747 33.3335 61.7431 31.6639C60.8991 28.1694 60.7279 22.6444 60.1464 18.7323L60.1727 18.7431C62.5806 19.7249 65.1728 19.3384 67.5123 18.3539C70.1094 17.2611 72.3545 15.375 73.4286 12.7202C74.0732 11.1272 74.3438 8.84437 73.6629 7.22797C73.6876 6.73548 73.4008 6.25274 73.146 5.8478C71.5875 3.37152 67.5902 0.647628 64.7308 0L74.5625 0C74.9022 0.526652 74.963 0.993456 74.9823 1.60499C75.1374 6.51292 75.0064 11.4652 75.0078 16.3768L75.0077 44.9475L75.0024 57.6832C75.0015 59.3649 75.2604 61.5213 74.9253 63.1455C74.8626 63.4495 74.7295 63.74 74.5625 64L0 64L0 63.6867L0 0Z"/>
</svg>
