<?xml version="1.0" encoding="utf-8" ?>
<svg xmlns="http://www.w3.org/2000/svg" xmlns:xlink="http://www.w3.org/1999/xlink" width="125" height="124">
	<defs>
		<linearGradient id="gradient_0" gradientUnits="userSpaceOnUse" x1="52.313992" y1="64.921944" x2="85.635086" y2="84.265724">
			<stop offset="0" stop-color="#D59371"/>
			<stop offset="1" stop-color="#E9BB96"/>
		</linearGradient>
	</defs>
	<path fill="url(#gradient_0)" d="M0 0L4.33007 0L5.93902 0L95.3287 0L97.9579 0L98.6812 0L101.771 0L103.245 0L110.909 0L113.43 0L118.196 0L120.434 0L124.562 0C125.256 1.06573 125.121 3.29539 124.881 4.49903C124.846 4.67373 124.79 4.83333 124.717 4.99575C125.434 7.01478 125.023 10.094 124.975 12.2428C124.986 15.8007 125.504 36.5849 124.723 38.5903C125.21 39.8753 125.336 43.7025 124.768 44.9758C124.725 45.0712 124.679 45.1622 124.626 45.2521C124.956 46.0035 125.1 46.6078 124.884 47.4261C125.109 50.0858 125.13 52.9659 124.908 55.6268C125.42 60.3398 125.017 65.427 125.017 70.1982C125.017 76.0114 125.363 82.0322 124.962 87.8091C124.934 88.2112 124.865 88.4837 124.613 88.8087C125.088 90.1063 125.135 91.1548 124.732 92.479C125.26 94.1027 125.418 103.137 124.664 104.695C125.2 105.951 125.356 109.728 124.825 111.029Q124.722 111.284 124.565 111.51C125.387 112.767 125.236 116.952 124.932 118.458C124.885 118.693 124.772 118.925 124.65 119.13C125.098 120.305 125.301 122.401 124.792 123.588C124.729 123.735 124.651 123.867 124.562 124L119.209 124L115.9 124L114.929 124L110.745 124L110.03 124L107.652 124L99.4592 124L74.2308 124L64.2181 124L52.5333 124L39.4619 124L30.676 124L29.2332 124L18.5291 124L6.94411 124L0 124L0 77.2597L0 4.65894L0 0Z"/>
	<path fill="#E7D5D1" d="M50.8245 84.0381L51.035 83.3223C51.4207 82.0281 51.746 80.181 53.032 79.4858C53.8058 80.2378 54.3894 80.9389 54.9243 81.8774C54.4789 82.7969 53.8905 84.2418 52.8376 84.5908C52.3625 84.7483 51.7118 84.662 51.2588 84.4356C51.0776 84.345 50.9448 84.197 50.8245 84.0381Z"/>
	<path fill="#D3B087" d="M82.9328 91.9637C81.8782 93.2186 81.5846 94.1928 81.0488 95.6908C78.266 98.022 75.0624 100.497 71.6665 101.852L69.9136 102.37C70.8089 101.108 73.8071 100.252 75.1608 99.3155C76.9297 98.0922 78.2103 96.1845 79.6991 94.6503C80.5126 93.812 81.4793 93.1315 82.3159 92.3037L82.9328 91.9637Z"/>
	<path fill="#252433" d="M53.3684 75.2126C54.765 76.3165 56.073 78.0175 56.3013 79.8492C56.3892 80.5546 56.3946 81.031 56.0054 81.6318C55.68 81.7545 55.2679 81.9871 54.9243 81.8774C54.3894 80.9389 53.8058 80.2378 53.032 79.4858C52.7405 79.4054 52.6584 79.2367 52.4727 79.0128C52.3059 77.7161 52.5965 76.2799 53.3684 75.2126Z"/>
	<path fill="#BF8052" d="M59.0046 89.6537C60.9986 89.4954 62.1266 90.8836 63.9203 90.947C64.8533 90.98 65.9758 89.7286 67.0079 89.7179C67.4313 89.7135 67.5225 89.8569 67.8089 90.1262C67.9309 90.7636 67.6422 91.2969 67.3982 91.8689C66.0098 92.971 64.5371 93.4695 62.7613 93.3284C61.5213 93.2298 60.484 92.8035 59.6685 91.8418C59.0511 91.1137 58.9296 90.5987 59.0046 89.6537Z"/>
	<path fill="#252433" d="M71.5178 74.5304C71.9833 75.2349 72.1454 75.2757 72.8943 75.5799C73.9029 75.4646 74.1597 75.3198 74.9745 74.7087C75.314 75.7068 75.8685 76.8959 75.8315 77.9569L75.4679 78.5205L76.2234 79.9424C75.8456 80.5508 75.664 80.7308 74.9526 80.8935C74.382 81.0241 73.4991 80.8361 73.0364 80.504C72.8312 80.3567 72.6552 80.1552 72.4951 79.961L72.4829 80.3268C72.0534 80.7824 71.9937 80.821 71.3821 80.9515C71.2648 80.8104 71.1709 80.6644 71.0897 80.5001C70.1876 78.6751 70.8993 76.3375 71.5178 74.5304Z"/>
	<path fill="#E7D5D1" d="M73.7879 76.1648C74.3827 76.923 74.9195 77.7284 75.4679 78.5205L76.2234 79.9424C75.8456 80.5508 75.664 80.7308 74.9526 80.8935C74.382 81.0241 73.4991 80.8361 73.0364 80.504C72.8312 80.3567 72.6552 80.1552 72.4951 79.961C72.716 78.6452 73.2943 77.3974 73.7879 76.1648Z"/>
	<path fill="#CC370B" d="M70.8604 94.0549C71.129 94.0017 71.4518 94.0843 71.7222 94.1224L71.7105 94.6917Q71.3715 95.2877 70.9467 95.826Q70.522 96.3642 70.0211 96.8325Q69.5203 97.3008 68.9548 97.6885Q68.3892 98.0761 67.7718 98.3744C65.8949 99.2678 64.5041 99.1241 62.5866 98.4528C61.5532 97.939 60.5483 97.3305 59.5376 96.7711C63.1791 95.4985 67.0857 94.8043 70.8604 94.0549Z"/>
	<path fill="#F4D4AD" d="M68.529 67.6393C68.5474 67.4816 68.5692 67.3248 68.6027 67.1694C68.9518 65.547 72.2211 63.8673 73.6006 62.9831L73.6174 62.7035Q73.0667 62.28 72.5272 61.8422C70.6946 60.3395 68.6588 57.6421 68.4432 55.2531C68.3642 54.3783 68.5069 53.4424 69.1096 52.7665C69.6099 52.2055 70.2931 51.964 71.0241 51.9117C73.0309 51.7683 75.4712 52.7932 76.9539 54.1066C78.3325 55.3279 79.221 56.9485 79.3183 58.7997L79.3223 58.8847L79.4765 58.8773C79.8408 58.1196 80.1298 57.3346 80.426 56.5486C80.8861 57.4172 80.0504 59.6753 79.8612 60.6266C75.7164 62.0871 71.4988 64.3444 68.529 67.6393Z"/>
	<path fill="#BF8052" d="M79.8306 46.0454C83.9863 47.5886 88.832 49.7354 90.7271 54.0892C90.7739 54.1967 90.8061 54.312 90.8341 54.4256C91.3053 56.4299 91.6936 58.438 92.0529 60.4651C91.967 61.971 90.4088 62.6096 89.9855 63.8829C89.0234 64.5913 87.7793 64.7853 86.6452 65.0906C81.7063 66.42 77.6171 67.3434 73.7641 70.9186C75.444 65.7672 84.8068 65.9229 88.7903 63.6097C89.4715 63.2141 90.0833 62.6715 90.2737 61.8752C90.5147 60.8679 90.0577 60.0911 89.5738 59.2555C86.6166 57.9773 76.5801 66.399 72.7946 66.8814C72.7716 66.8844 72.7487 66.8867 72.7257 66.8893C71.7126 67.4406 70.4418 68.4254 69.2571 68.3527C68.9083 68.1441 68.7172 68.0069 68.529 67.6393C71.4988 64.3444 75.7164 62.0871 79.8612 60.6266C81.329 60.1169 82.7641 59.5097 84.2044 58.9278C84.2424 58.8805 84.2804 58.8331 84.3218 58.7888C84.3458 58.7632 84.3705 58.7382 84.3945 58.7127C85.3247 57.7213 87.5929 57.6755 88.0931 56.7188C83.6451 54.5077 83.118 49.365 79.8306 46.0454Z"/>
	<path fill="#873B04" d="M88.5895 57.4816C84.6291 61.5483 76.663 63.2272 72.7257 66.8893C71.7126 67.4406 70.4418 68.4254 69.2571 68.3527C68.9083 68.1441 68.7172 68.0069 68.529 67.6393C71.4988 64.3444 75.7164 62.0871 79.8612 60.6266C81.329 60.1169 82.7641 59.5097 84.2044 58.9278C85.7022 58.5285 87.1379 58.0229 88.5895 57.4816Z"/>
	<defs>
		<linearGradient id="gradient_1" gradientUnits="userSpaceOnUse" x1="86.836647" y1="80.942619" x2="71.016563" y2="90.220543">
			<stop offset="0" stop-color="#E4A982"/>
			<stop offset="1" stop-color="#F5D6C0"/>
		</linearGradient>
	</defs>
	<path fill="url(#gradient_1)" d="M76.2234 79.9424C77.3535 81.1634 78.2551 81.5331 79.9294 81.5879C81.1053 81.6263 83.3645 81.1902 84.2488 80.3652C84.2716 80.344 84.2931 80.3214 84.3152 80.2995C84.9209 80.1396 85.2401 79.9523 85.8265 80.3076C86.9707 81.0009 87.3977 81.994 88.792 82.4789C88.8822 82.5103 88.9692 82.5462 89.0601 82.5765C88.5862 83.4515 88.0771 84.303 87.5641 85.1555C86.7397 87.2992 86.6559 88.6873 86.2511 90.8581C84.7527 92.8046 83.0989 94.3305 81.0488 95.6908C81.5846 94.1928 81.8782 93.2186 82.9328 91.9637L82.3159 92.3037L81.478 92.4647L81.1533 92.0904C80.219 91.9299 78.7898 92.6508 77.8602 92.925C76.0491 93.4591 74.2978 93.6501 72.5736 92.7136C72.4741 92.5424 72.2686 92.2911 72.2844 92.0969C72.3887 90.8119 73.9998 89.8634 74.1149 88.5796C74.2823 86.712 72.9437 84.484 72.5652 82.6486C72.4092 81.8923 72.5319 81.102 72.4829 80.3268L72.4951 79.961C72.6552 80.1552 72.8312 80.3567 73.0364 80.504C73.4991 80.8361 74.382 81.0241 74.9526 80.8935C75.664 80.7308 75.8456 80.5508 76.2234 79.9424Z"/>
	<path fill="#CD9F73" d="M82.9328 91.9637C84.6726 89.8537 85.7067 87.1593 87.5641 85.1555C86.7397 87.2992 86.6559 88.6873 86.2511 90.8581C84.7527 92.8046 83.0989 94.3305 81.0488 95.6908C81.5846 94.1928 81.8782 93.2186 82.9328 91.9637Z"/>
	<path fill="#71DC02" d="M89.9855 63.8829C90.5995 65.25 89.9397 67.4846 89.977 69.0089C89.9583 69.0163 89.9397 69.024 89.9209 69.0312C88.6035 69.5348 87.3909 68.2699 86.3993 69.5488C86.3687 70.2001 86.3932 70.733 86.5385 71.3736C87.1435 71.1916 87.5512 71.0681 88.1806 71.2652C88.5202 71.9824 88.4012 72.6052 88.1328 73.3596C87.3895 75.4495 86.1546 76.3432 84.9302 78.0174L84.2555 79.8282L84.3152 80.2995C84.2931 80.3214 84.2716 80.344 84.2488 80.3652C83.3645 81.1902 81.1053 81.6263 79.9294 81.5879C78.2551 81.5331 77.3535 81.1634 76.2234 79.9424L75.4679 78.5205L75.8315 77.9569C75.8685 76.8959 75.314 75.7068 74.9745 74.7087C74.1597 75.3198 73.9029 75.4646 72.8943 75.5799C72.1454 75.2757 71.9833 75.2349 71.5178 74.5304C72.1458 73.2298 72.9335 72.0942 73.7641 70.9186C77.6171 67.3434 81.7063 66.42 86.6452 65.0906C87.7793 64.7853 89.0234 64.5913 89.9855 63.8829Z"/>
	<path fill="#1F773B" d="M83.332 69.369C84.0732 69.3729 84.2968 69.2893 84.8922 69.7717C85.3071 70.8018 84.9448 72.5716 85.8749 73.2753C85.012 74.5576 84.2777 73.6365 83.7293 75.4888L83.3957 76.6301C83.0299 76.9288 82.5598 77.2418 82.1233 77.422C78.5639 78.8915 77.876 74.1915 75.4741 73.1985Q75.6338 72.9737 75.8013 72.7546C77.6534 70.3331 80.4826 69.7477 83.332 69.369Z"/>
	<path fill="#62B614" d="M83.332 69.369C84.0732 69.3729 84.2968 69.2893 84.8922 69.7717C85.3071 70.8018 84.9448 72.5716 85.8749 73.2753C85.012 74.5576 84.2777 73.6365 83.7293 75.4888C83.8559 73.4248 83.1191 71.4269 83.332 69.369Z"/>
	<path fill="#0F1E06" d="M89.9855 63.8829C90.5995 65.25 89.9397 67.4846 89.977 69.0089C89.9583 69.0163 89.9397 69.024 89.9209 69.0312C88.6035 69.5348 87.3909 68.2699 86.3993 69.5488C86.3687 70.2001 86.3932 70.733 86.5385 71.3736C86.3358 72.015 86.1431 72.6575 85.8749 73.2753C84.9448 72.5716 85.3071 70.8018 84.8922 69.7717C84.2968 69.2893 84.0732 69.3729 83.332 69.369C80.4826 69.7477 77.6534 70.3331 75.8013 72.7546Q75.6338 72.9737 75.4741 73.1985C75.3084 73.6693 75.0429 74.2188 74.9745 74.7087C74.1597 75.3198 73.9029 75.4646 72.8943 75.5799C72.1454 75.2757 71.9833 75.2349 71.5178 74.5304C72.1458 73.2298 72.9335 72.0942 73.7641 70.9186C77.6171 67.3434 81.7063 66.42 86.6452 65.0906C87.7793 64.7853 89.0234 64.5913 89.9855 63.8829Z"/>
	<path fill="#BF8052" d="M92.0529 60.4651L92.4311 60.992C93.0321 61.0731 93.3328 60.9601 93.8472 60.6515C93.9496 62.1832 94.5506 63.0373 95.6955 64.0315Q96.445 64.6805 97.3858 64.9933L97.7765 66.3513L98.209 67.2468C98.9539 67.4285 99.5969 67.4846 100.363 67.4595L100.521 68.7297C99.1526 70.9422 98.5164 73.367 96.8087 75.3973L96.5779 75.4236C95.8066 75.998 95.1584 76.3085 94.2304 76.5601L93.28 76.5682L92.7027 76.6957C92.532 76.9835 91.8717 82.7548 91.936 83.1601C91.9547 84.0911 91.6589 84.8974 91.3649 85.7696C91.2355 85.1036 91.1111 84.5461 90.77 83.9479L90.4118 84.0632L89.9136 85.1151C89.5896 87.0914 87.474 89.2804 86.2511 90.8581C86.6559 88.6873 86.7397 87.2992 87.5641 85.1555C88.0771 84.303 88.5862 83.4515 89.0601 82.5765C88.9692 82.5462 88.8822 82.5103 88.792 82.4789C87.3977 81.994 86.9707 81.0009 85.8265 80.3076C85.2401 79.9523 84.9209 80.1396 84.3152 80.2995L84.2555 79.8282L84.9302 78.0174C86.1546 76.3432 87.3895 75.4495 88.1328 73.3596C88.4012 72.6052 88.5202 71.9824 88.1806 71.2652C87.5512 71.0681 87.1435 71.1916 86.5385 71.3736C86.3932 70.733 86.3687 70.2001 86.3993 69.5488C87.3909 68.2699 88.6035 69.5348 89.9209 69.0312C89.9397 69.024 89.9583 69.0163 89.977 69.0089C89.9397 67.4846 90.5995 65.25 89.9855 63.8829C90.4088 62.6096 91.967 61.971 92.0529 60.4651Z"/>
	<path fill="#5F2432" d="M89.977 69.0089L90.2896 69.9762C90.0734 72.3722 89.2484 74.6877 88.5043 76.9637C87.2458 77.8913 85.7192 79.3404 84.2555 79.8282L84.9302 78.0174C86.1546 76.3432 87.3895 75.4495 88.1328 73.3596C88.4012 72.6052 88.5202 71.9824 88.1806 71.2652C87.5512 71.0681 87.1435 71.1916 86.5385 71.3736C86.3932 70.733 86.3687 70.2001 86.3993 69.5488C87.3909 68.2699 88.6035 69.5348 89.9209 69.0312C89.9397 69.024 89.9583 69.0163 89.977 69.0089Z"/>
	<path fill="#A86338" d="M92.0529 60.4651L92.4311 60.992C93.0321 61.0731 93.3328 60.9601 93.8472 60.6515C93.9496 62.1832 94.5506 63.0373 95.6955 64.0315Q96.445 64.6805 97.3858 64.9933L97.7765 66.3513L97.6951 66.3438C96.7715 66.2521 95.4171 65.295 94.7848 65.8081C93.1942 67.0989 91.9991 68.7923 90.2896 69.9762L89.977 69.0089C89.9397 67.4846 90.5995 65.25 89.9855 63.8829C90.4088 62.6096 91.967 61.971 92.0529 60.4651Z"/>
	<path fill="#BA7944" d="M98.209 67.2468C98.9539 67.4285 99.5969 67.4846 100.363 67.4595L100.521 68.7297C99.1526 70.9422 98.5164 73.367 96.8087 75.3973L96.5779 75.4236C95.8066 75.998 95.1584 76.3085 94.2304 76.5601L93.28 76.5682C93.7153 76.3102 94.2347 75.9758 94.392 75.4618C94.8925 73.8273 93.4431 73.4142 92.8624 72.2297C92.6367 71.7692 92.7475 71.5763 92.897 71.1201C93.4036 70.7708 93.8952 70.4224 94.4568 70.1647C94.9289 69.5557 95.3312 69.1736 96.0038 68.7919C96.7371 68.7682 96.8168 68.8167 97.4386 69.2158C97.9263 68.5851 98.0549 68.0138 98.209 67.2468Z"/>
	<path fill="#A86338" d="M94.4568 70.1647C94.9289 69.5557 95.3312 69.1736 96.0038 68.7919C96.7371 68.7682 96.8168 68.8167 97.4386 69.2158C97.4001 70.0245 97.5055 70.7649 96.8507 71.3678C96.8232 71.393 96.7947 71.4171 96.7667 71.4417C95.9003 71.0958 95.1939 70.7397 94.4568 70.1647Z"/>
	<defs>
		<linearGradient id="gradient_2" gradientUnits="userSpaceOnUse" x1="44.578899" y1="50.250145" x2="77.416107" y2="91.816307">
			<stop offset="0" stop-color="#8D5026"/>
			<stop offset="1" stop-color="#9E6B36"/>
		</linearGradient>
	</defs>
	<path fill="url(#gradient_2)" d="M87.0524 20.65C88.0992 21.7365 89.1702 22.8078 90.1706 23.9375C90.9171 24.6793 91.6639 25.4172 92.3653 26.2024L93.1369 26.2283C92.8602 26.6737 92.5566 27.1171 92.3221 27.586C92.04 31.4115 91.0766 36.0387 92.0612 39.8131C92.7467 43.18 91.9027 45.4404 93.0097 49.2095C92.6684 50.6624 92.7567 52.1113 92.444 53.5261L92.2713 53.3985C91.5918 53.6408 91.2736 53.8315 90.8341 54.4256C90.8061 54.312 90.7739 54.1967 90.7271 54.0892C88.832 49.7354 83.9863 47.5886 79.8306 46.0454C76.7462 44.6345 74.2742 44.018 70.8701 44.0942C70.1465 45.0637 69.427 46.2381 68.4958 47.0131C68.6173 46.5692 69.3026 45.7195 69.1546 45.3976C68.7413 45.2557 67.9804 45.1099 67.6398 44.8775C66.4465 44.0631 66.8023 43.0379 65.0034 43.581C62.8332 46.2718 53.2194 71.7841 53.36 75.1408C53.361 75.1648 53.3656 75.1886 53.3684 75.2126C52.5965 76.2799 52.3059 77.7161 52.4727 79.0128C52.6584 79.2367 52.7405 79.4054 53.032 79.4858C51.746 80.181 51.4207 82.0281 51.035 83.3223L50.8245 84.0381C49.7029 86.9087 48.2215 91.6978 47.8978 94.7489L48.2473 95.0001C49.9298 96.2513 50.6246 97.6433 51.9232 99.202C53.0712 99.9694 54.4353 101.102 55.8358 101.295L58.5916 102.263C58.5627 102.657 58.5696 103.112 58.4364 103.483C58.9715 104.067 59.5652 104.576 59.6003 105.412C59.6015 105.439 59.604 105.465 59.6051 105.492C59.6079 105.558 59.6056 105.553 59.5993 105.629L59.6489 106.305Q60.8468 107.544 61.9953 108.829C62.6073 109.541 63.2032 110.298 63.9119 110.916C64.6543 111.589 65.5526 112.276 66.0763 113.135C67.1844 113.755 68.2858 114.382 69.4361 114.921C71.5976 116.471 72.8123 118.354 73.2536 121.011C73.3622 121.666 73.4903 122.209 73.2438 122.83L73.0461 122.982L72.9917 123.213C73.6285 123.218 74.3958 123.147 75.0128 123.28L74.2308 124L64.2181 124L52.5333 124L39.4619 124C40.0297 123.696 40.4288 123.559 40.7875 123.008L40.532 122.519C40.1566 121.054 40.1667 119.393 40.9267 118.061C41.0539 114.955 41.1775 111.624 41.0117 108.525C40.9372 107.133 40.5532 105.868 40.5429 104.445C41.1041 102.086 41.8254 99.8106 42.5883 97.5121C46.2329 91.2136 46.4118 85.249 48.2274 78.7251C49.144 75.4315 50.5769 72.3036 51.3765 68.9706C49.6759 66.427 52.0492 63.4814 51.2283 61.0001C51.0558 61.3534 51.0194 61.4865 50.6856 61.7089C50.6192 61.542 50.5462 61.3751 50.4863 61.2058C50.3347 60.7777 50.0311 60.3535 49.8023 59.9586C50.5885 58.1865 51.9506 55.7158 51.8704 53.7329C53.7534 47.6528 57.587 42.4213 61.0929 37.1939C61.9567 36.2697 62.7928 35.4242 63.8092 34.6612C64.7867 34.2676 65.7009 33.7253 66.6204 33.2137C69.1683 32.865 71.9759 31.7926 74.3108 33.5927C74.8273 33.9909 75.284 34.4942 75.7315 34.9672C76.4279 34.4952 77.308 33.6544 78.1394 33.6751C78.3963 33.6546 78.6581 33.6345 78.9117 33.5886C79.088 33.5566 79.4785 33.4221 79.6082 33.2902C80.1419 32.7474 80.7559 30.6504 81.1391 29.8191C82.1644 27.5954 83.3369 25.5985 84.719 23.5772L84.8923 23.1864C85.5089 22.1841 86.0347 21.288 87.0524 20.65Z"/>
	<path fill="#CD9F73" d="M54.2837 109.721C54.7354 110.984 54.9686 112.006 55.014 113.356L54.4252 114.903L53.5837 116.715C53.5448 116.646 53.5092 116.576 53.4764 116.504C52.4411 114.229 53.4915 111.892 54.2837 109.721Z"/>
	<path fill="#873B04" d="M55.8358 101.295L58.5916 102.263C58.5627 102.657 58.5696 103.112 58.4364 103.483C57.6708 103.703 56.9994 103.991 56.2908 104.353C55.5856 104.986 55.6193 105.895 55.4413 106.809C55.0023 105.793 54.9797 104.02 54.7047 102.847L54.1454 102.652C54.6658 102.04 55.0519 101.563 55.8358 101.295Z"/>
	<path fill="#BA7944" d="M92.0612 39.8131C92.7467 43.18 91.9027 45.4404 93.0097 49.2095C92.6684 50.6624 92.7567 52.1113 92.444 53.5261L92.2713 53.3985C91.8145 50.4883 90.8951 49.7345 90.3973 47.6421C90.0608 46.228 91.9179 44.5496 91.7022 43.1081C91.6282 42.6133 91.4974 42.4978 91.1253 42.2096L90.1396 42.5673L89.6309 42.4102C90.7985 41.7507 91.4312 40.9858 92.0612 39.8131Z"/>
	<path fill="#303738" d="M45.4644 101.752C46.1491 100.05 46.8131 95.9255 48.2473 95.0001C49.9298 96.2513 50.6246 97.6433 51.9232 99.202C51.8672 99.5107 51.7701 99.7766 51.5667 100.021C50.3021 101.543 47.2915 101.598 45.4644 101.752Z"/>
	<path fill="#58846F" d="M56.2908 104.353C56.9994 103.991 57.6708 103.703 58.4364 103.483C58.9715 104.067 59.5652 104.576 59.6003 105.412C59.6015 105.439 59.604 105.465 59.6051 105.492C59.6079 105.558 59.6056 105.553 59.5993 105.629L59.6489 106.305C58.2504 108.793 57.3292 112.463 57.5012 115.331C56.4625 115.082 55.4923 114.95 54.4252 114.903L55.014 113.356C54.9686 112.006 54.7354 110.984 54.2837 109.721C54.7437 109.03 55.5236 107.633 55.4413 106.809C55.6193 105.895 55.5856 104.986 56.2908 104.353Z"/>
	<path fill="#D3B087" d="M56.2908 104.353C56.6805 104.841 56.6553 105.154 56.5912 105.77C56.3453 108.128 55.7698 111.135 55.014 113.356C54.9686 112.006 54.7354 110.984 54.2837 109.721C54.7437 109.03 55.5236 107.633 55.4413 106.809C55.6193 105.895 55.5856 104.986 56.2908 104.353Z"/>
	<path fill="#CD9F73" d="M57.5012 115.331C57.3292 112.463 58.2504 108.793 59.6489 106.305Q60.8468 107.544 61.9953 108.829C62.6073 109.541 63.2032 110.298 63.9119 110.916C64.6543 111.589 65.5526 112.276 66.0763 113.135C62.7411 113.608 62.6317 113.282 59.8778 115.532L58.3488 116.509L57.5012 115.331Z"/>
	<path fill="#09C9B1" d="M54.4252 114.903C55.4923 114.95 56.4625 115.082 57.5012 115.331L58.3488 116.509C59.7013 118.27 62.0193 121.083 62.6485 123.205L62.9096 123.283L64.2181 124L52.5333 124L52.5151 123.685C52.7628 122.505 52.9781 121.379 53.0189 120.169L53.2454 120.232C53.2262 119.035 53.4023 117.892 53.5837 116.715L54.4252 114.903Z"/>
	<path fill="#095949" d="M53.0189 120.169L53.2454 120.232C53.2402 121.021 53.0999 122.041 53.6552 122.661C55.8561 124.305 60.0496 123.414 62.6485 123.205L62.9096 123.283L64.2181 124L52.5333 124L52.5151 123.685C52.7628 122.505 52.9781 121.379 53.0189 120.169Z"/>
	<path fill="#F4D4AD" d="M59.8778 115.532C62.6317 113.282 62.7411 113.608 66.0763 113.135C67.1844 113.755 68.2858 114.382 69.4361 114.921C71.5976 116.471 72.8123 118.354 73.2536 121.011C73.3622 121.666 73.4903 122.209 73.2438 122.83L73.0461 122.982L72.9917 123.213C73.6285 123.218 74.3958 123.147 75.0128 123.28L74.2308 124L64.2181 124L62.9096 123.283L62.6485 123.205C62.0193 121.083 59.7013 118.27 58.3488 116.509L59.8778 115.532Z"/>
	<path fill="#FCEED9" d="M59.8778 115.532C60.0744 117.478 62.1822 118.461 62.4913 120.568L61.8568 120.627C62.172 121.046 62.3995 121.533 62.9753 121.588C63.1462 121.605 63.3443 121.556 63.5112 121.521C64.2321 122.393 63.5151 122.889 64.8672 123.011C67.5626 123.253 70.3374 122.602 73.0461 122.982L72.9917 123.213C73.6285 123.218 74.3958 123.147 75.0128 123.28L74.2308 124L64.2181 124L62.9096 123.283L62.6485 123.205C62.0193 121.083 59.7013 118.27 58.3488 116.509L59.8778 115.532Z"/>
	<path fill="#6D5026" d="M72.9917 123.213C73.6285 123.218 74.3958 123.147 75.0128 123.28L74.2308 124L64.2181 124L62.9096 123.283C66.2659 123.384 69.6347 123.271 72.9917 123.213Z"/>
	<defs>
		<linearGradient id="gradient_3" gradientUnits="userSpaceOnUse" x1="81.66394" y1="35.678967" x2="89.717712" y2="29.775509">
			<stop offset="0" stop-color="#975E30"/>
			<stop offset="1" stop-color="#B5864E"/>
		</linearGradient>
	</defs>
	<path fill="url(#gradient_3)" d="M87.0524 20.65C88.0992 21.7365 89.1702 22.8078 90.1706 23.9375C90.9171 24.6793 91.6639 25.4172 92.3653 26.2024L93.1369 26.2283C92.8602 26.6737 92.5566 27.1171 92.3221 27.586C92.04 31.4115 91.0766 36.0387 92.0612 39.8131C91.4312 40.9858 90.7985 41.7507 89.6309 42.4102L90.1396 42.5673C90.0866 42.617 90.0386 42.6623 89.9775 42.7024C89.4157 43.0714 89.3188 43.0553 88.681 42.9337C88.5366 42.7906 88.4008 42.6362 88.296 42.4613C87.8734 41.7556 88.0523 40.9535 88.2461 40.2121L88.2563 40.5692C88.7448 39.1019 88.6453 37.5776 88.6264 36.0521C88.2191 36.7435 87.7002 37.8806 87.0406 38.3551C84.9282 39.8748 82.413 34.402 78.1394 33.6751C78.3963 33.6546 78.6581 33.6345 78.9117 33.5886C79.088 33.5566 79.4785 33.4221 79.6082 33.2902C80.1419 32.7474 80.7559 30.6504 81.1391 29.8191C82.1644 27.5954 83.3369 25.5985 84.719 23.5772L84.8923 23.1864C85.5089 22.1841 86.0347 21.288 87.0524 20.65Z"/>
	<defs>
		<linearGradient id="gradient_4" gradientUnits="userSpaceOnUse" x1="83.335373" y1="29.382994" x2="88.253426" y2="22.463152">
			<stop offset="0" stop-color="#AD8357"/>
			<stop offset="1" stop-color="#D0A574"/>
		</linearGradient>
	</defs>
	<path fill="url(#gradient_4)" d="M87.0524 20.65C88.0992 21.7365 89.1702 22.8078 90.1706 23.9375C89.4634 25.494 88.6926 27.0294 88.016 28.5982C88.0661 27.558 88.1781 26.5169 87.4994 25.6817C85.9194 26.0277 85.089 28.542 83.9896 29.6548C83.6823 29.9658 83.6499 30.0382 83.2007 30.0407C82.4147 28.7608 84.4171 25.203 84.719 23.5772L84.8923 23.1864C85.5089 22.1841 86.0347 21.288 87.0524 20.65Z"/>
	<path fill="#BF8052" d="M90.1706 23.9375C90.9171 24.6793 91.6639 25.4172 92.3653 26.2024L93.1369 26.2283C92.8602 26.6737 92.5566 27.1171 92.3221 27.586C92.04 31.4115 91.0766 36.0387 92.0612 39.8131C91.4312 40.9858 90.7985 41.7507 89.6309 42.4102L89.3331 42.3758C88.7052 41.664 89.6814 37.3663 88.3258 35.091C87.0068 32.8838 87.5184 30.9585 88.016 28.5982C88.6926 27.0294 89.4634 25.494 90.1706 23.9375Z"/>
	<defs>
		<linearGradient id="gradient_5" gradientUnits="userSpaceOnUse" x1="86.338593" y1="31.834791" x2="92.101318" y2="26.747557">
			<stop offset="0" stop-color="#B98A60"/>
			<stop offset="1" stop-color="#CAAB7F"/>
		</linearGradient>
	</defs>
	<path fill="url(#gradient_5)" d="M90.1706 23.9375C90.9171 24.6793 91.6639 25.4172 92.3653 26.2024L93.1369 26.2283C92.8602 26.6737 92.5566 27.1171 92.3221 27.586C88.9579 29.6884 90.3308 32.8846 88.3258 35.091C87.0068 32.8838 87.5184 30.9585 88.016 28.5982C88.6926 27.0294 89.4634 25.494 90.1706 23.9375Z"/>
	<path fill="#543D03" d="M47.1913 102.962C48.7412 106.152 51.0148 109.303 51.8563 112.761C52.0498 113.185 52.2013 116.634 52.5369 117.889L52.6385 117.778C52.8865 118.578 52.9613 119.336 53.0189 120.169C52.9781 121.379 52.7628 122.505 52.5151 123.685L52.5333 124L39.4619 124C40.0297 123.696 40.4288 123.559 40.7875 123.008L40.532 122.519C40.1566 121.054 40.1667 119.393 40.9267 118.061C43.2003 112.772 42.9626 107.381 47.1913 102.962Z"/>
	<path fill="#6D5026" d="M47.8042 118.311C47.7565 118.259 47.7115 118.211 47.6771 118.149C46.7025 116.378 45.1369 113.378 45.7026 111.326L46.0709 111.166C47.5142 112.187 48.3052 116.257 49.0819 117.935C48.6743 118.045 48.1806 118.127 47.8042 118.311Z"/>
	<path fill="#A86338" d="M51.8563 112.761C52.0498 113.185 52.2013 116.634 52.5369 117.889L52.6385 117.778C52.8865 118.578 52.9613 119.336 53.0189 120.169C52.9781 121.379 52.7628 122.505 52.5151 123.685C52.3828 123.656 52.2596 123.613 52.1322 123.568C50.0775 122.853 48.7694 120.126 47.8042 118.311C48.1806 118.127 48.6743 118.045 49.0819 117.935C49.6284 117.908 50.2954 117.913 50.7347 117.548C51.7672 116.69 51.7151 114.041 51.8563 112.761Z"/>
	<defs>
		<linearGradient id="gradient_6" gradientUnits="userSpaceOnUse" x1="108.25652" y1="26.56542" x2="101.66881" y2="25.268324">
			<stop offset="0" stop-color="#E26002"/>
			<stop offset="1" stop-color="#D37B05"/>
		</linearGradient>
	</defs>
	<path fill="url(#gradient_6)" d="M98.6812 0L101.771 0L103.245 0L110.909 0L113.43 0L118.196 0L120.434 0L124.562 0C125.256 1.06573 125.121 3.29539 124.881 4.49903C124.846 4.67373 124.79 4.83333 124.717 4.99575C125.434 7.01478 125.023 10.094 124.975 12.2428C124.986 15.8007 125.504 36.5849 124.723 38.5903C125.21 39.8753 125.336 43.7025 124.768 44.9758C124.725 45.0712 124.679 45.1622 124.626 45.2521L124.111 45.3787L124 45.5785C123.875 45.5525 123.749 45.5197 123.632 45.4677C122.143 44.8044 118.995 40.7977 118.445 39.2239L118.42 39.1523L118.085 39.044C117.269 40.8323 116.482 42.6407 115.616 44.4049Q114.647 46.6393 113.719 48.8908C113.388 50.0505 113.11 51.138 113.008 52.3469L112.464 50.9766C111.26 56.3592 107.588 59.3722 103.993 63.2479C102.734 64.6058 101.654 66.1336 100.363 67.4595C99.5969 67.4846 98.9539 67.4285 98.209 67.2468L97.7765 66.3513L97.3858 64.9933Q96.445 64.6805 95.6955 64.0315C94.5506 63.0373 93.9496 62.1832 93.8472 60.6515C93.3328 60.9601 93.0321 61.0731 92.4311 60.992L92.0529 60.4651C91.6936 58.438 91.3053 56.4299 90.8341 54.4256C91.2736 53.8315 91.5918 53.6408 92.2713 53.3985L92.444 53.5261C92.7567 52.1113 92.6684 50.6624 93.0097 49.2095C91.9027 45.4404 92.7467 43.18 92.0612 39.8131C91.0766 36.0387 92.04 31.4115 92.3221 27.586C92.5566 27.1171 92.8602 26.6737 93.1369 26.2283C93.2134 25.5758 93.2669 24.8559 93.4753 24.231C93.7103 23.526 94.4413 23.2215 95.0588 22.9129C95.6214 22.4818 95.718 22.013 95.8757 21.362C96.3904 16.3142 96.7421 11.1888 97.6859 6.19906C98.2744 4.25272 98.4015 2.01824 98.6812 0Z"/>
	<path fill="#FBE73B" d="M113.43 0L118.196 0L120.434 0L120.568 0.202351L120.327 1.85367C118.575 6.89701 116.864 11.9218 115.33 17.0368L114.421 18.0444C114.015 19.8729 113.262 21.622 112.879 23.4387C112.648 23.4033 112.634 23.3098 112.496 23.1285C112.514 22.0231 112.896 19.9792 113.62 19.107C113.639 19.0838 113.66 19.0614 113.679 19.0386C113.503 18.4916 112.913 17.8221 112.54 17.3883C111.106 18.0265 111.348 19.6839 110.342 20.5917L110.207 19.5472C111.134 17.6777 111.075 14.1907 111.283 12.0783C111.324 7.96317 112.37 3.94881 113.43 0Z"/>
	<path fill="#F5F3F6" d="M113.43 0L118.196 0C116.968 1.9589 112.84 9.3053 112.472 11.2458C112.088 11.5272 111.702 11.8529 111.283 12.0783C111.324 7.96317 112.37 3.94881 113.43 0Z"/>
	<path fill="#F7AD14" d="M114.421 18.0444L115.33 17.0368C114.559 21.1861 113.744 25.3766 112.476 29.4061C111.537 32.3924 110.292 35.2667 109.327 38.238L108.99 39.2652C108.881 42.0906 106.669 48.0561 104.526 50.0008C104.423 50.0939 104.315 50.1763 104.202 50.2567L103.825 50.1132C103.55 49.2077 104.083 48.0666 104.368 47.1909L104.318 47.2561C103.514 48.327 103.228 51.0494 102.475 51.6341L101.203 51.3374C100.396 52.1429 101.268 51.9345 99.6624 52.9103L99.4418 52.8051C100.311 51.2373 101.576 50.114 101.653 48.2284C102.844 45.0495 104.309 42.0131 105.369 38.7755C107.409 32.5489 108.738 25.9341 110.207 19.5472L110.342 20.5917C111.348 19.6839 111.106 18.0265 112.54 17.3883C112.913 17.8221 113.503 18.4916 113.679 19.0386C113.66 19.0614 113.639 19.0838 113.62 19.107C112.896 19.9792 112.514 22.0231 112.496 23.1285C112.634 23.3098 112.648 23.4033 112.879 23.4387C113.262 21.622 114.015 19.8729 114.421 18.0444Z"/>
	<path fill="#D46805" d="M114.421 18.0444L115.33 17.0368C114.559 21.1861 113.744 25.3766 112.476 29.4061C111.537 32.3924 110.292 35.2667 109.327 38.238L108.99 39.2652C108.881 42.0906 106.669 48.0561 104.526 50.0008C104.423 50.0939 104.315 50.1763 104.202 50.2567L103.825 50.1132C103.55 49.2077 104.083 48.0666 104.368 47.1909C105.055 46.3893 105.598 44.3839 106.012 43.3748C108.694 36.8311 111.48 30.4236 112.879 23.4387C113.262 21.622 114.015 19.8729 114.421 18.0444Z"/>
	<path fill="#D46805" d="M108.99 39.2652C109.558 40.2355 110.444 41.1658 111.569 41.4665C112.48 41.7098 114.395 41.7413 115.013 42.4217C115.29 43.0575 115.638 43.6962 115.616 44.4049Q114.647 46.6393 113.719 48.8908C113.388 50.0505 113.11 51.138 113.008 52.3469L112.464 50.9766C111.26 56.3592 107.588 59.3722 103.993 63.2479C102.734 64.6058 101.654 66.1336 100.363 67.4595C99.5969 67.4846 98.9539 67.4285 98.209 67.2468L97.7765 66.3513L97.3858 64.9933Q96.445 64.6805 95.6955 64.0315C94.5506 63.0373 93.9496 62.1832 93.8472 60.6515C93.3328 60.9601 93.0321 61.0731 92.4311 60.992L92.0529 60.4651C91.6936 58.438 91.3053 56.4299 90.8341 54.4256C91.2736 53.8315 91.5918 53.6408 92.2713 53.3985L92.444 53.5261C92.7567 52.1113 92.6684 50.6624 93.0097 49.2095C94.114 52.7922 95.8002 56.157 97.8188 59.3069C100.392 57.4552 102.578 55.149 104.746 52.8498C103.876 52.4828 102.866 52.4018 101.935 52.2635C101.199 52.7661 99.9926 53.7795 99.1074 53.8705C98.3711 53.9461 98.0232 53.512 97.498 53.0895C99.6096 52.0185 100.674 50.2753 101.653 48.2284C101.576 50.114 100.311 51.2373 99.4418 52.8051L99.6624 52.9103C101.268 51.9345 100.396 52.1429 101.203 51.3374L102.475 51.6341C103.228 51.0494 103.514 48.327 104.318 47.2561L104.368 47.1909C104.083 48.0666 103.55 49.2077 103.825 50.1132L104.202 50.2567C104.315 50.1763 104.423 50.0939 104.526 50.0008C106.669 48.0561 108.881 42.0906 108.99 39.2652Z"/>
	<path fill="#C88237" d="M94.7279 59.2221C96.0133 60.3876 96.7987 63.3357 97.3858 64.9933Q96.445 64.6805 95.6955 64.0315C94.5506 63.0373 93.9496 62.1832 93.8472 60.6515L94.7279 59.2221Z"/>
	<path fill="#873B04" d="M92.2713 53.3985L92.444 53.5261C93.0593 55.5607 93.7545 57.3298 94.7279 59.2221L93.8472 60.6515C93.3328 60.9601 93.0321 61.0731 92.4311 60.992L92.0529 60.4651C91.6936 58.438 91.3053 56.4299 90.8341 54.4256C91.2736 53.8315 91.5918 53.6408 92.2713 53.3985Z"/>
	<path fill="#F99C10" d="M108.99 39.2652C109.558 40.2355 110.444 41.1658 111.569 41.4665C112.48 41.7098 114.395 41.7413 115.013 42.4217C115.29 43.0575 115.638 43.6962 115.616 44.4049Q114.647 46.6393 113.719 48.8908C113.388 50.0505 113.11 51.138 113.008 52.3469L112.464 50.9766L112.097 50.638C109.914 51.6868 105.779 61.3347 101.931 61.2231C101.746 60.1617 102.48 59.2758 103.069 58.4397C105.463 55.0424 112.971 46.8547 112.334 42.5857C112.095 42.2253 112.036 42.0358 111.629 41.8708C110.722 43.814 106.248 51.9291 104.746 52.8498C103.876 52.4828 102.866 52.4018 101.935 52.2635C101.199 52.7661 99.9926 53.7795 99.1074 53.8705C98.3711 53.9461 98.0232 53.512 97.498 53.0895C99.6096 52.0185 100.674 50.2753 101.653 48.2284C101.576 50.114 100.311 51.2373 99.4418 52.8051L99.6624 52.9103C101.268 51.9345 100.396 52.1429 101.203 51.3374L102.475 51.6341C103.228 51.0494 103.514 48.327 104.318 47.2561L104.368 47.1909C104.083 48.0666 103.55 49.2077 103.825 50.1132L104.202 50.2567C104.315 50.1763 104.423 50.0939 104.526 50.0008C106.669 48.0561 108.881 42.0906 108.99 39.2652Z"/>
	<path fill="#F7AD14" d="M103.245 0L110.909 0C109.976 4.24918 109.425 9.29653 108.201 13.3845C108.159 18.639 103.013 44.6193 99.5589 48.0317C98.8642 48.718 97.687 49.0746 96.7261 49.0706C96.3935 49.0693 96.184 48.9787 95.8927 49.1825C95.2084 48.2243 95.1985 46.5458 95.2433 45.4069C95.2848 45.3526 95.3226 45.2959 95.364 45.2417C96.763 43.411 97.4056 40.1781 98.1685 37.9833C99.0691 35.3919 100.206 32.8724 100.954 30.2308C102.455 24.9353 102.756 18.8632 102.883 13.3628C102.966 9.73491 102.746 6.03437 103.129 2.42686L103.245 0Z"/>
	<path fill="#FCC52F" d="M103.245 0L110.909 0C109.976 4.24918 109.425 9.29653 108.201 13.3845Q108.17 13.2848 108.142 13.1843C108.033 12.7945 107.936 12.3704 107.982 11.9646C108.076 11.1396 110.07 0.708582 110.073 0.703855C110.091 0.677814 110.11 0.653373 110.128 0.628132L106.006 0.575613C105.126 1.29058 104.344 2.14502 103.545 2.94844Q103.497 4.41201 103.391 5.87247L103.129 2.42686L103.245 0Z"/>
	<defs>
		<linearGradient id="gradient_7" gradientUnits="userSpaceOnUse" x1="102.00304" y1="24.752909" x2="95.274055" y2="22.678371">
			<stop offset="0" stop-color="#D36300"/>
			<stop offset="1" stop-color="#E79D08"/>
		</linearGradient>
	</defs>
	<path fill="url(#gradient_7)" d="M98.6812 0L101.771 0L103.245 0L103.129 2.42686C102.746 6.03437 102.966 9.73491 102.883 13.3628C102.756 18.8632 102.455 24.9353 100.954 30.2308C100.206 32.8724 99.0691 35.3919 98.1685 37.9833C97.4056 40.1781 96.763 43.411 95.364 45.2417C95.3226 45.2959 95.2848 45.3526 95.2433 45.4069C95.1985 46.5458 95.2084 48.2243 95.8927 49.1825C96.291 50.567 96.6803 51.737 97.4293 52.9809C97.4514 53.0176 97.4747 53.0536 97.498 53.0895C98.0232 53.512 98.3711 53.9461 99.1074 53.8705C99.9926 53.7795 101.199 52.7661 101.935 52.2635C102.866 52.4018 103.876 52.4828 104.746 52.8498C102.578 55.149 100.392 57.4552 97.8188 59.3069C95.8002 56.157 94.114 52.7922 93.0097 49.2095C91.9027 45.4404 92.7467 43.18 92.0612 39.8131C91.0766 36.0387 92.04 31.4115 92.3221 27.586C92.5566 27.1171 92.8602 26.6737 93.1369 26.2283C93.2134 25.5758 93.2669 24.8559 93.4753 24.231C93.7103 23.526 94.4413 23.2215 95.0588 22.9129C95.6214 22.4818 95.718 22.013 95.8757 21.362C96.3904 16.3142 96.7421 11.1888 97.6859 6.19906C98.2744 4.25272 98.4015 2.01824 98.6812 0Z"/>
	<path fill="#FCC52F" d="M93.1369 26.2283C93.2134 25.5758 93.2669 24.8559 93.4753 24.231C93.7103 23.526 94.4413 23.2215 95.0588 22.9129L95.0298 23.1927C94.5805 23.764 94.1395 24.3489 93.9571 25.0645C93.0559 28.5996 94.136 36.6239 94.5962 40.4712Q94.8949 42.9423 95.2433 45.4069C95.1985 46.5458 95.2084 48.2243 95.8927 49.1825C96.291 50.567 96.6803 51.737 97.4293 52.9809C97.4514 53.0176 97.4747 53.0536 97.498 53.0895C98.0232 53.512 98.3711 53.9461 99.1074 53.8705C99.9926 53.7795 101.199 52.7661 101.935 52.2635C102.866 52.4018 103.876 52.4828 104.746 52.8498C102.578 55.149 100.392 57.4552 97.8188 59.3069C95.8002 56.157 94.114 52.7922 93.0097 49.2095C91.9027 45.4404 92.7467 43.18 92.0612 39.8131C91.0766 36.0387 92.04 31.4115 92.3221 27.586C92.5566 27.1171 92.8602 26.6737 93.1369 26.2283Z"/>
	<path fill="#FCC52F" d="M98.6812 0L101.771 0C101.273 4.90073 100.946 9.87418 100.736 14.7951C100.601 17.9451 100.691 21.2207 100.245 24.3372C99.5713 29.0408 97.9682 33.7362 96.6969 38.3093C95.5596 34.1291 96.9348 26.2291 95.0298 23.1927L95.0588 22.9129C95.6214 22.4818 95.718 22.013 95.8757 21.362C96.3904 16.3142 96.7421 11.1888 97.6859 6.19906C98.2744 4.25272 98.4015 2.01824 98.6812 0Z"/>
	<path fill="#F0BECB" d="M120.434 0L124.562 0C125.256 1.06573 125.121 3.29539 124.881 4.49903C124.846 4.67373 124.79 4.83333 124.717 4.99575C125.434 7.01478 125.023 10.094 124.975 12.2428C124.986 15.8007 125.504 36.5849 124.723 38.5903C125.21 39.8753 125.336 43.7025 124.768 44.9758C124.725 45.0712 124.679 45.1622 124.626 45.2521L124.111 45.3787L124 45.5785C123.875 45.5525 123.749 45.5197 123.632 45.4677C122.143 44.8044 118.995 40.7977 118.445 39.2239L118.42 39.1523L118.085 39.044C117.269 40.8323 116.482 42.6407 115.616 44.4049C115.638 43.6962 115.29 43.0575 115.013 42.4217C114.395 41.7413 112.48 41.7098 111.569 41.4665C110.444 41.1658 109.558 40.2355 108.99 39.2652L109.327 38.238C110.292 35.2667 111.537 32.3924 112.476 29.4061C113.744 25.3766 114.559 21.1861 115.33 17.0368C116.864 11.9218 118.575 6.89701 120.327 1.85367L120.568 0.202351L120.434 0Z"/>
	<path fill="#F7AD14" d="M114.083 33.9529L114.765 34.4357C114.871 36.3167 113.324 38.6723 114.031 40.4818L114.407 40.4578C115.435 39.2846 116.667 37.3452 118.023 36.6117L118.433 36.7785C118.656 37.6107 118.363 38.266 118.085 39.044C117.269 40.8323 116.482 42.6407 115.616 44.4049C115.638 43.6962 115.29 43.0575 115.013 42.4217C114.395 41.7413 112.48 41.7098 111.569 41.4665C110.444 41.1658 109.558 40.2355 108.99 39.2652L109.327 38.238C109.494 38.697 109.53 38.803 109.921 39.0957L110.531 38.8966C111.943 37.579 113.234 35.684 114.083 33.9529Z"/>
	<path fill="#FAE1F9" d="M120.327 1.85367C120.818 2.03135 121.107 2.02967 121.343 2.51923C123.278 6.53483 122.155 11.5588 120.703 15.5313C119.533 18.7328 117.898 21.9476 116.991 25.2117C116.562 26.7564 116.845 28.474 116.287 30.0164C115.745 31.5117 113.98 32.092 114.083 33.9529C113.234 35.684 111.943 37.579 110.531 38.8966L109.921 39.0957C109.53 38.803 109.494 38.697 109.327 38.238C110.292 35.2667 111.537 32.3924 112.476 29.4061C113.744 25.3766 114.559 21.1861 115.33 17.0368C116.864 11.9218 118.575 6.89701 120.327 1.85367Z"/>
	<path fill="#826F8F" d="M120.434 0L124.562 0C125.256 1.06573 125.121 3.29539 124.881 4.49903C124.846 4.67373 124.79 4.83333 124.717 4.99575C125.434 7.01478 125.023 10.094 124.975 12.2428C124.986 15.8007 125.504 36.5849 124.723 38.5903C125.21 39.8753 125.336 43.7025 124.768 44.9758C124.725 45.0712 124.679 45.1622 124.626 45.2521L124.111 45.3787C124.181 45.2502 124.236 45.1178 124.288 44.9813C124.997 43.1342 123.592 41.7911 122.544 40.4411C120.162 37.3732 119.451 34.4732 119.378 30.6422C119.322 27.7101 119.499 24.7796 120.205 21.9243C121.832 15.352 125.776 8.87669 122.798 2.08615C122.108 1.27085 121.535 0.674818 120.568 0.202351L120.434 0Z"/>
	<path fill="#342718" d="M120.434 0L124.562 0C125.256 1.06573 125.121 3.29539 124.881 4.49903C124.846 4.67373 124.79 4.83333 124.717 4.99575C124.673 4.06253 123.399 2.74774 122.798 2.08615C122.108 1.27085 121.535 0.674818 120.568 0.202351L120.434 0Z"/>
	<path fill="#733A89" d="M124.975 12.2428C124.986 15.8007 125.504 36.5849 124.723 38.5903C124.667 37.8227 124.223 36.8592 123.985 36.1154C123.209 33.6949 122.523 31.48 122.456 28.9131C122.364 25.4368 122.942 22.0329 123.739 18.664C124.238 16.5536 124.905 14.421 124.975 12.2428Z"/>
	<defs>
		<linearGradient id="gradient_8" gradientUnits="userSpaceOnUse" x1="104.8237" y1="116.63976" x2="96.258438" y2="96.560959">
			<stop offset="0" stop-color="#CD5000"/>
			<stop offset="1" stop-color="#FFA80F"/>
		</linearGradient>
	</defs>
	<path fill="url(#gradient_8)" d="M118.085 39.044L118.42 39.1523L118.445 39.2239C118.995 40.7977 122.143 44.8044 123.632 45.4677C123.749 45.5197 123.875 45.5525 124 45.5785L124.111 45.3787L124.626 45.2521C124.956 46.0035 125.1 46.6078 124.884 47.4261C125.109 50.0858 125.13 52.9659 124.908 55.6268C125.42 60.3398 125.017 65.427 125.017 70.1982C125.017 76.0114 125.363 82.0322 124.962 87.8091C124.934 88.2112 124.865 88.4837 124.613 88.8087C125.088 90.1063 125.135 91.1548 124.732 92.479C125.26 94.1027 125.418 103.137 124.664 104.695C125.2 105.951 125.356 109.728 124.825 111.029Q124.722 111.284 124.565 111.51C125.387 112.767 125.236 116.952 124.932 118.458C124.885 118.693 124.772 118.925 124.65 119.13C125.098 120.305 125.301 122.401 124.792 123.588C124.729 123.735 124.651 123.867 124.562 124L119.209 124L115.9 124L114.929 124L110.745 124L110.03 124L107.652 124L99.4592 124L74.2308 124L75.0128 123.28C74.3958 123.147 73.6285 123.218 72.9917 123.213L73.0461 122.982L73.2438 122.83C73.4903 122.209 73.3622 121.666 73.2536 121.011C72.8123 118.354 71.5976 116.471 69.4361 114.921C68.2858 114.382 67.1844 113.755 66.0763 113.135C65.5526 112.276 64.6543 111.589 63.9119 110.916C63.2032 110.298 62.6073 109.541 61.9953 108.829Q60.8468 107.544 59.6489 106.305L59.5993 105.629C59.6056 105.553 59.6079 105.558 59.6051 105.492C59.604 105.465 59.6015 105.439 59.6003 105.412C59.5652 104.576 58.9715 104.067 58.4364 103.483C58.5696 103.112 58.5627 102.657 58.5916 102.263C59.4864 102.571 60.5801 102.822 61.4087 103.258C64.9882 102.54 65.5513 104.268 69.9136 102.37L71.6665 101.852C75.0624 100.497 78.266 98.022 81.0488 95.6908C83.0989 94.3305 84.7527 92.8046 86.2511 90.8581C87.474 89.2804 89.5896 87.0914 89.9136 85.1151L90.4118 84.0632L90.77 83.9479C91.1111 84.5461 91.2355 85.1036 91.3649 85.7696C91.6589 84.8974 91.9547 84.0911 91.936 83.1601C91.8717 82.7548 92.532 76.9835 92.7027 76.6957L93.28 76.5682L94.2304 76.5601C95.1584 76.3085 95.8066 75.998 96.5779 75.4236L96.8087 75.3973C98.5164 73.367 99.1526 70.9422 100.521 68.7297L100.363 67.4595C101.654 66.1336 102.734 64.6058 103.993 63.2479C107.588 59.3722 111.26 56.3592 112.464 50.9766L113.008 52.3469C113.11 51.138 113.388 50.0505 113.719 48.8908Q114.647 46.6393 115.616 44.4049C116.482 42.6407 117.269 40.8323 118.085 39.044Z"/>
	<path fill="#491505" d="M75.0128 123.28C80.2778 123.473 85.6019 123.596 90.87 123.461L94.0115 123.496C95.6944 123.502 97.5325 123.359 99.1953 123.56L99.4592 124L74.2308 124L75.0128 123.28Z"/>
	<path fill="#F99C10" d="M80.5028 105.593C81.1889 103.703 81.0526 101.33 82.0266 99.5523C82.1923 99.2497 82.2146 99.2644 82.54 99.1703C83.2221 100.145 83.0945 101.353 83.8639 102.236C83.8767 102.251 83.8899 102.265 83.903 102.28C83.8783 102.3 83.8541 102.32 83.8291 102.339C82.8996 103.054 82.2145 102.584 81.4566 103.681C81.8549 104.61 82.8788 104.751 83.2618 105.736C83.4856 106.312 81.6101 113.148 81.1737 114.223C80.6862 115.425 79.8029 115.978 78.6472 116.441L78.4663 116.512C78.6608 116.794 78.7422 116.824 79.0817 116.887C79.7685 117.016 80.9798 117.091 81.5737 116.685C81.7954 116.533 82.0107 115.979 82.1467 115.727L82.4697 115.902C82.3169 116.753 82.3371 117.099 81.7218 117.738C80.6532 118.186 79.0958 118.202 78.0199 117.755C77.7028 117.623 77.4086 117.429 77.1322 117.228C77.6281 115.722 78.0646 114.288 78.2744 112.713C78.3768 110.473 79.9562 107.823 80.5028 105.593Z"/>
	<path fill="#BA7944" d="M79.2979 105.546L80.5028 105.593C79.9562 107.823 78.3768 110.473 78.2744 112.713C78.0646 114.288 77.6281 115.722 77.1322 117.228C76.7639 118.852 76.2848 120.549 75.372 121.962C75.196 122.408 75.0579 122.801 75.0128 123.28C74.3958 123.147 73.6285 123.218 72.9917 123.213L73.0461 122.982L73.2438 122.83C73.4903 122.209 73.3622 121.666 73.2536 121.011C72.8123 118.354 71.5976 116.471 69.4361 114.921C69.5463 114.347 69.8667 113.886 70.1692 113.398L71.6515 113.812C72.5935 113.701 73.7661 113.66 74.6358 113.277C75.6018 112.851 75.8359 112.191 76.2085 111.269C77.1415 109.753 78.0888 108.616 77.8785 106.777C77.8525 106.593 77.8432 106.443 77.9257 106.272C78.1645 105.779 78.7953 105.714 79.2979 105.546Z"/>
	<path fill="#D3B087" d="M75.372 121.962C75.0553 121.522 74.917 120.887 74.8444 120.357C74.5762 118.401 74.9628 115.811 76.1657 114.224C76.6895 113.532 77.3845 112.838 78.2744 112.713C78.0646 114.288 77.6281 115.722 77.1322 117.228C76.7639 118.852 76.2848 120.549 75.372 121.962Z"/>
	<path fill="#CC370B" d="M120.973 97.3356C119.969 100.114 118.724 101.964 115.976 103.247C113.678 104.32 111.218 104.896 109.166 106.458C105.481 109.265 95.7201 122.794 94.0115 123.496L90.87 123.461C91.3625 123.368 91.8607 123.218 92.2402 122.873C93.5534 121.68 92.542 119.233 92.5807 117.728C92.5974 117.077 92.9202 116.708 93.371 116.285C94.3326 116.071 95.0354 116.509 95.9602 116.8C96.6966 116.626 96.8617 116.412 97.3911 115.901C97.5428 116.151 97.6675 116.429 97.9363 116.564C98.801 115.541 98.8105 114.344 99.3557 113.19C99.854 112.135 100.889 111.036 101.693 110.195C104.993 106.742 108.855 104.359 113.063 102.19C115.931 100.711 118.57 99.5466 120.973 97.3356Z"/>
	<path fill="#491505" d="M89.9136 85.1151L90.4118 84.0632L90.77 83.9479C91.1111 84.5461 91.2355 85.1036 91.3649 85.7696C90.7703 87.8696 89.8507 89.9693 89.3316 92.0649C87.8928 95.5654 86.3372 99.3338 83.903 102.28C83.8899 102.265 83.8767 102.251 83.8639 102.236C83.0945 101.353 83.2221 100.145 82.54 99.1703C82.2146 99.2644 82.1923 99.2497 82.0266 99.5523C81.0526 101.33 81.1889 103.703 80.5028 105.593L79.2979 105.546C79.2813 105.545 79.2648 105.544 79.2483 105.543C77.7301 105.395 76.5256 104.915 75.1243 104.345C73.9066 103.76 72.159 103.176 71.6665 101.852C75.0624 100.497 78.266 98.022 81.0488 95.6908C83.0989 94.3305 84.7527 92.8046 86.2511 90.8581C87.474 89.2804 89.5896 87.0914 89.9136 85.1151Z"/>
	<path fill="#BA7944" d="M69.9136 102.37L71.6665 101.852C72.159 103.176 73.9066 103.76 75.1243 104.345C76.5256 104.915 77.7301 105.395 79.2483 105.543C79.2648 105.544 79.2813 105.545 79.2979 105.546C78.7953 105.714 78.1645 105.779 77.9257 106.272C77.8432 106.443 77.8525 106.593 77.8785 106.777C78.0888 108.616 77.1415 109.753 76.2085 111.269C75.8359 112.191 75.6018 112.851 74.6358 113.277C73.7661 113.66 72.5935 113.701 71.6515 113.812L70.1692 113.398C69.8667 113.886 69.5463 114.347 69.4361 114.921C68.2858 114.382 67.1844 113.755 66.0763 113.135C65.5526 112.276 64.6543 111.589 63.9119 110.916C63.2032 110.298 62.6073 109.541 61.9953 108.829Q60.8468 107.544 59.6489 106.305L59.5993 105.629C59.6056 105.553 59.6079 105.558 59.6051 105.492C59.604 105.465 59.6015 105.439 59.6003 105.412C59.5652 104.576 58.9715 104.067 58.4364 103.483C58.5696 103.112 58.5627 102.657 58.5916 102.263C59.4864 102.571 60.5801 102.822 61.4087 103.258C64.9882 102.54 65.5513 104.268 69.9136 102.37Z"/>
	<path fill="#C88237" d="M63.0988 104.598C64.5467 105.633 66.3198 106.741 66.7362 108.589C65.6358 108.712 65.2451 107.972 64.3471 107.524C63.4219 106.712 62.4895 105.76 61.352 105.259C62.0508 105.339 62.5374 104.955 63.0988 104.598Z"/>
	<path fill="#BB8C4B" d="M64.3471 107.524C65.2451 107.972 65.6358 108.712 66.7362 108.589C67.3974 108.91 67.977 109.059 68.7016 109.169C67.5449 109.224 66.408 109.116 65.2401 109.21C65.2178 109.746 65.2923 110.016 64.8598 110.387C64.5994 110.611 64.2199 110.766 63.9119 110.916C63.2032 110.298 62.6073 109.541 61.9953 108.829C62.8687 108.285 63.5553 108.387 64.3471 107.524Z"/>
	<path fill="#BB8C4B" d="M58.5916 102.263C59.4864 102.571 60.5801 102.822 61.4087 103.258L63.0988 104.598C62.5374 104.955 62.0508 105.339 61.352 105.259C60.4857 105.144 60.3434 105.171 59.5993 105.629C59.6056 105.553 59.6079 105.558 59.6051 105.492C59.604 105.465 59.6015 105.439 59.6003 105.412C59.5652 104.576 58.9715 104.067 58.4364 103.483C58.5696 103.112 58.5627 102.657 58.5916 102.263Z"/>
	<path fill="#F7AD14" d="M59.5993 105.629C60.3434 105.171 60.4857 105.144 61.352 105.259C62.4895 105.76 63.4219 106.712 64.3471 107.524C63.5553 108.387 62.8687 108.285 61.9953 108.829Q60.8468 107.544 59.6489 106.305L59.5993 105.629Z"/>
	<path fill="#C88237" d="M75.1243 104.345C76.5256 104.915 77.7301 105.395 79.2483 105.543C79.2648 105.544 79.2813 105.545 79.2979 105.546C78.7953 105.714 78.1645 105.779 77.9257 106.272C77.8432 106.443 77.8525 106.593 77.8785 106.777C77.3022 106.438 77.1928 106.305 76.5183 106.408C75.9255 107.285 75.8961 108.15 74.9927 108.804C74.5674 108.524 74.3422 108.308 74.1081 107.855C73.9725 106.61 74.6092 105.443 75.1243 104.345Z"/>
	<path fill="#F7AD14" d="M74.9927 108.804C75.8961 108.15 75.9255 107.285 76.5183 106.408C77.1928 106.305 77.3022 106.438 77.8785 106.777C78.0888 108.616 77.1415 109.753 76.2085 111.269C75.5451 110.494 74.5207 110.542 73.9682 109.516L73.6492 109.244L74.9927 108.804Z"/>
	<path fill="#FBE73B" d="M65.2401 109.21C66.408 109.116 67.5449 109.224 68.7016 109.169L73.6492 109.244L73.9682 109.516C74.5207 110.542 75.5451 110.494 76.2085 111.269C75.8359 112.191 75.6018 112.851 74.6358 113.277C73.7661 113.66 72.5935 113.701 71.6515 113.812L70.1692 113.398C69.8667 113.886 69.5463 114.347 69.4361 114.921C68.2858 114.382 67.1844 113.755 66.0763 113.135C65.5526 112.276 64.6543 111.589 63.9119 110.916C64.2199 110.766 64.5994 110.611 64.8598 110.387C65.2923 110.016 65.2178 109.746 65.2401 109.21Z"/>
	<path fill="#C88237" d="M63.9119 110.916C64.2199 110.766 64.5994 110.611 64.8598 110.387C65.2923 110.016 65.2178 109.746 65.2401 109.21C66.5122 111.264 68.1081 112.249 70.1692 113.398C69.8667 113.886 69.5463 114.347 69.4361 114.921C68.2858 114.382 67.1844 113.755 66.0763 113.135C65.5526 112.276 64.6543 111.589 63.9119 110.916Z"/>
	<defs>
		<linearGradient id="gradient_9" gradientUnits="userSpaceOnUse" x1="114.16284" y1="112.87484" x2="109.14517" y2="107.05305">
			<stop offset="0" stop-color="#980000"/>
			<stop offset="1" stop-color="#C00B02"/>
		</linearGradient>
	</defs>
	<path fill="url(#gradient_9)" d="M124.732 92.479C125.26 94.1027 125.418 103.137 124.664 104.695C123.693 105.461 122.365 105.9 121.257 106.444C119.129 107.489 116.926 108.628 115.019 110.034C110.595 113.295 104.287 123.013 99.1953 123.56C97.5325 123.359 95.6944 123.502 94.0115 123.496C95.7201 122.794 105.481 109.265 109.166 106.458C111.218 104.896 113.678 104.32 115.976 103.247C118.724 101.964 119.969 100.114 120.973 97.3356C122.209 95.862 123.911 94.2029 124.732 92.479Z"/>
	<defs>
		<linearGradient id="gradient_10" gradientUnits="userSpaceOnUse" x1="111.80886" y1="112.76283" x2="117.53513" y2="121.40862">
			<stop offset="0" stop-color="#2C0000"/>
			<stop offset="1" stop-color="#2E1815"/>
		</linearGradient>
	</defs>
	<path fill="url(#gradient_10)" d="M99.1953 123.56C104.287 123.013 110.595 113.295 115.019 110.034C116.926 108.628 119.129 107.489 121.257 106.444C122.365 105.9 123.693 105.461 124.664 104.695C125.2 105.951 125.356 109.728 124.825 111.029Q124.722 111.284 124.565 111.51C125.387 112.767 125.236 116.952 124.932 118.458C124.885 118.693 124.772 118.925 124.65 119.13C125.098 120.305 125.301 122.401 124.792 123.588C124.729 123.735 124.651 123.867 124.562 124L119.209 124L115.9 124L114.929 124L110.745 124L110.03 124L107.652 124L99.4592 124L99.1953 123.56Z"/>
	<path fill="#873B04" d="M109.423 121.387C109.869 122.243 109.946 123.05 110.03 124L107.652 124C107.574 123.644 107.587 123.229 107.569 122.862C107.862 122.062 108.714 121.757 109.423 121.387Z"/>
	<path fill="#110202" d="M117.568 114.706C118.266 114.709 118.938 114.627 119.488 115.127C119.624 115.434 119.797 115.753 119.871 116.082L119.553 118.155C119.041 118.429 118.396 118.691 117.965 119.078L116.765 118.659C116.524 118.276 116.168 117.745 116.159 117.293C116.136 116.153 116.822 115.478 117.568 114.706Z"/>
	<path fill="#110202" d="M109.423 121.387C109.27 120.673 109.242 120.286 109.653 119.651C110.28 118.683 111.71 117.425 112.869 117.182C113.079 117.137 113.272 117.158 113.477 117.212C113.546 118.112 112.578 119.179 112.139 119.983C111.503 121.15 111.171 122.728 110.745 124L110.03 124C109.946 123.05 109.869 122.243 109.423 121.387Z"/>
	<path fill="#491505" d="M117.568 114.706C117.544 114.715 117.52 114.725 117.496 114.733C116.872 114.951 116.202 115.156 115.604 114.873C115.687 114.207 115.979 113.815 116.418 113.307C117.244 112.348 118.812 111.204 120.101 111.097C120.744 111.421 120.732 111.693 120.969 112.339C120.82 113.164 120.903 113.71 121.145 114.506C120.466 114.833 120.286 114.848 120.011 115.602C119.954 115.758 119.912 115.921 119.871 116.082C119.797 115.753 119.624 115.434 119.488 115.127C118.938 114.627 118.266 114.709 117.568 114.706Z"/>
	<path fill="#A86338" d="M117.965 119.078C118.396 118.691 119.041 118.429 119.553 118.155C119.453 119.993 119.246 121.883 119.261 123.721L119.209 124L115.9 124L114.929 124C114.989 122.326 115.565 119.863 116.765 118.659L117.965 119.078Z"/>
	<path fill="#491505" d="M117.965 119.078C118.396 118.691 119.041 118.429 119.553 118.155C119.453 119.993 119.246 121.883 119.261 123.721L119.209 124L115.9 124C116.221 123.773 116.557 123.535 116.842 123.263C117.916 122.238 117.945 120.448 117.965 119.078Z"/>
	<path fill="#110202" d="M124.565 111.51C125.387 112.767 125.236 116.952 124.932 118.458C124.885 118.693 124.772 118.925 124.65 119.13C125.098 120.305 125.301 122.401 124.792 123.588C124.729 123.735 124.651 123.867 124.562 124L119.209 124L119.261 123.721C119.246 121.883 119.453 119.993 119.553 118.155L119.871 116.082C119.912 115.921 119.954 115.758 120.011 115.602C120.286 114.848 120.466 114.833 121.145 114.506C120.903 113.71 120.82 113.164 120.969 112.339C122.21 111.754 123.184 111.525 124.565 111.51Z"/>
	<path fill="#342718" d="M121.343 120.939C121.692 121.233 121.915 121.324 122.368 121.377C123.388 120.985 124.065 120.012 124.65 119.13C125.098 120.305 125.301 122.401 124.792 123.588C124.729 123.735 124.651 123.867 124.562 124L119.209 124L119.261 123.721L119.745 123.598C120.555 122.967 120.93 121.853 121.343 120.939Z"/>
	<path fill="#A86338" d="M119.871 116.082C119.912 115.921 119.954 115.758 120.011 115.602C120.286 114.848 120.466 114.833 121.145 114.506C121.993 115.664 122.239 116.553 122.025 117.986C121.878 118.976 121.591 119.97 121.343 120.939C120.93 121.853 120.555 122.967 119.745 123.598L119.261 123.721C119.246 121.883 119.453 119.993 119.553 118.155L119.871 116.082Z"/>
	<path fill="#FCC52F" d="M118.085 39.044L118.42 39.1523L118.445 39.2239C118.995 40.7977 122.143 44.8044 123.632 45.4677C123.749 45.5197 123.875 45.5525 124 45.5785L124.111 45.3787L124.626 45.2521C124.956 46.0035 125.1 46.6078 124.884 47.4261C125.109 50.0858 125.13 52.9659 124.908 55.6268C125.42 60.3398 125.017 65.427 125.017 70.1982C125.017 76.0114 125.363 82.0322 124.962 87.8091C124.934 88.2112 124.865 88.4837 124.613 88.8087C121.887 90.6645 118.654 92.1598 116.105 94.181C114.557 95.4082 113.362 96.9313 111.954 98.2959C110.23 98.5866 108.395 98.6352 106.74 99.1923C104.322 98.7678 103.53 97.4057 102.001 97.066C99.4789 96.5056 95.7556 98.7847 93.3007 99.4765C92.2585 99.7701 91.0722 99.8049 89.9972 100C89.4411 101.447 89.1321 102.208 87.6361 102.819C87.5452 102.857 87.5403 102.856 87.4592 102.877L87.2579 103.02L86.9469 102.533C86.3249 102.271 85.8811 102.396 85.2553 102.545L85.0605 102.286C85.7493 99.931 87.4565 97.7562 88.4698 95.5025C88.8894 94.5693 89.6909 93.0076 89.3316 92.0649C89.8507 89.9693 90.7703 87.8696 91.3649 85.7696C91.6589 84.8974 91.9547 84.0911 91.936 83.1601C91.8717 82.7548 92.532 76.9835 92.7027 76.6957L93.28 76.5682L94.2304 76.5601C95.1584 76.3085 95.8066 75.998 96.5779 75.4236L96.8087 75.3973C98.5164 73.367 99.1526 70.9422 100.521 68.7297L100.363 67.4595C101.654 66.1336 102.734 64.6058 103.993 63.2479C107.588 59.3722 111.26 56.3592 112.464 50.9766L113.008 52.3469C113.11 51.138 113.388 50.0505 113.719 48.8908Q114.647 46.6393 115.616 44.4049C116.482 42.6407 117.269 40.8323 118.085 39.044Z"/>
	<path fill="#A99827" d="M124.908 55.6268C124.679 53.8399 124.018 48.821 124.884 47.4261C125.109 50.0858 125.13 52.9659 124.908 55.6268Z"/>
	<path fill="#F99C10" d="M87.4592 102.877L87.5762 102.518L87.314 102.07Q87.3989 101.883 87.4949 101.702C88.0445 100.666 88.9234 100.324 89.9972 100C89.4411 101.447 89.1321 102.208 87.6361 102.819C87.5452 102.857 87.5403 102.856 87.4592 102.877Z"/>
	<path fill="#F99C10" d="M96.5779 75.4236L96.8087 75.3973C96.2912 77.1333 95.8204 78.6377 94.1057 79.5683C94.0567 79.5948 94.0064 79.6189 93.9559 79.6424C93.9292 78.5653 93.9064 77.604 94.2304 76.5601C95.1584 76.3085 95.8066 75.998 96.5779 75.4236Z"/>
	<path fill="#C88237" d="M93.28 76.5682L94.2304 76.5601C93.9064 77.604 93.9292 78.5653 93.9559 79.6424C92.8548 81.1274 94.7084 82.3113 91.936 83.1601C91.8717 82.7548 92.532 76.9835 92.7027 76.6957L93.28 76.5682Z"/>
	<path fill="#E7D5D1" d="M101.578 71.4819C102.92 69.6436 104.591 67.9644 106.029 66.1836C108.425 63.2165 110.347 60.0595 112.108 56.6923C112.126 57.6927 111.739 58.5162 111.981 59.4702L112.803 60.2173C110.139 63.2809 105.03 74.2761 101.587 75.2212L101.206 75.0256C100.864 73.8118 101.201 72.6464 101.578 71.4819Z"/>
	<path fill="#F99C10" d="M112.464 50.9766L113.008 52.3469C113.575 53.7937 112.451 55.2953 112.108 56.6923C110.347 60.0595 108.425 63.2165 106.029 66.1836C104.591 67.9644 102.92 69.6436 101.578 71.4819L101.106 71.2302C100.615 70.6877 100.61 69.4539 100.521 68.7297L100.363 67.4595C101.654 66.1336 102.734 64.6058 103.993 63.2479C107.588 59.3722 111.26 56.3592 112.464 50.9766Z"/>
	<path fill="#FAE1F9" d="M118.085 39.044L118.42 39.1523L118.445 39.2239C118.995 40.7977 122.143 44.8044 123.632 45.4677C123.749 45.5197 123.875 45.5525 124 45.5785C123.311 47.4026 116.916 56.6403 115.451 57.5297C114.636 58.5256 113.759 59.3631 112.803 60.2173L111.981 59.4702C111.739 58.5162 112.126 57.6927 112.108 56.6923C112.451 55.2953 113.575 53.7937 113.008 52.3469C113.11 51.138 113.388 50.0505 113.719 48.8908Q114.647 46.6393 115.616 44.4049C116.482 42.6407 117.269 40.8323 118.085 39.044Z"/>
	<path fill="#F5F3F6" d="M113.008 52.3469C113.11 51.138 113.388 50.0505 113.719 48.8908C113.874 49.7331 114.101 50.6786 114.085 51.5341C114.061 52.862 112.766 57.4941 113.786 58.3858L113.516 57.9029L114.217 58.2283C114.624 57.83 114.886 57.6331 115.451 57.5297C114.636 58.5256 113.759 59.3631 112.803 60.2173L111.981 59.4702C111.739 58.5162 112.126 57.6927 112.108 56.6923C112.451 55.2953 113.575 53.7937 113.008 52.3469Z"/>
	<path fill="#F4D4AD" d="M0 0L4.33007 0L5.93902 0L95.3287 0L97.9579 0L98.6812 0C98.4015 2.01824 98.2744 4.25272 97.6859 6.19906C96.7421 11.1888 96.3904 16.3142 95.8757 21.362C95.718 22.013 95.6214 22.4818 95.0588 22.9129C94.4413 23.2215 93.7103 23.526 93.4753 24.231C93.2669 24.8559 93.2134 25.5758 93.1369 26.2283L92.3653 26.2024C91.6639 25.4172 90.9171 24.6793 90.1706 23.9375C89.1702 22.8078 88.0992 21.7365 87.0524 20.65C86.0347 21.288 85.5089 22.1841 84.8923 23.1864L84.719 23.5772C83.3369 25.5985 82.1644 27.5954 81.1391 29.8191C80.7559 30.6504 80.1419 32.7474 79.6082 33.2902C79.4785 33.4221 79.088 33.5566 78.9117 33.5886C78.6581 33.6345 78.3963 33.6546 78.1394 33.6751C77.308 33.6544 76.4279 34.4952 75.7315 34.9672C75.284 34.4942 74.8273 33.9909 74.3108 33.5927C71.9759 31.7926 69.1683 32.865 66.6204 33.2137C65.7009 33.7253 64.7867 34.2676 63.8092 34.6612C62.7928 35.4242 61.9567 36.2697 61.0929 37.1939C57.587 42.4213 53.7534 47.6528 51.8704 53.7329C51.9506 55.7158 50.5885 58.1865 49.8023 59.9586C50.0311 60.3535 50.3347 60.7777 50.4863 61.2058C50.5462 61.3751 50.6192 61.542 50.6856 61.7089C51.0194 61.4865 51.0558 61.3534 51.2283 61.0001C52.0492 63.4814 49.6759 66.427 51.3765 68.9706C50.5769 72.3036 49.144 75.4315 48.2274 78.7251C46.4118 85.249 46.2329 91.2136 42.5883 97.5121C41.8254 99.8106 41.1041 102.086 40.5429 104.445C40.5532 105.868 40.9372 107.133 41.0117 108.525C41.1775 111.624 41.0539 114.955 40.9267 118.061C40.1667 119.393 40.1566 121.054 40.532 122.519L40.7875 123.008C40.4288 123.559 40.0297 123.696 39.4619 124L30.676 124L29.2332 124L18.5291 124L6.94411 124L0 124L0 77.2597L0 4.65894L0 0Z"/>
	<path fill="#FCEED9" d="M56.8761 24.1825C57.6314 24.4028 58.1145 24.5351 58.5819 25.2123C59.0126 26.4269 58.5283 27.7453 58.0002 28.8558C56.6887 31.6139 54.2766 33.5867 52.5491 36.0471C50.6777 38.7124 48.7 43.7761 46.2869 45.6587L45.9558 45.6681C45.941 45.4886 51.3429 37.1624 52.1085 36.1014C53.4484 34.2446 55.0247 32.5395 56.2915 30.6345C57.095 29.4264 57.3806 28.0377 58.1097 26.8316C58.3295 26.4679 58.3077 26.1396 58.262 25.7292C57.936 25.3769 57.9051 25.2494 57.4009 25.2343C55.1543 25.1669 52.0679 27.6561 50.5046 29.1724C50.2452 29.424 50.038 29.6955 49.8658 30.0141L50.798 29.8001C51.4745 30.4413 51.692 31.6522 52.3661 32.4474C52.2852 33.065 52.2919 33.1046 51.8439 33.5307C51.3295 33.4161 51.2207 33.3268 50.9259 32.8603C50.4882 32.1677 50.5305 31.3536 49.7127 30.9496C48.9661 30.8527 48.4945 31.1052 47.9263 31.5444C45.738 33.2361 42.8917 37.9579 40.9178 38.969C44.1837 34.1955 48.5743 30.2692 53.026 26.6465C54.2629 25.7207 55.5312 24.9408 56.8761 24.1825Z"/>
	<path fill="#CD9F73" d="M32.0338 120.921C31.7117 117.601 31.6846 114.414 31.6174 111.085C31.4576 103.17 31.4664 94.7904 36.1354 87.9546C36.0704 89.8749 35.953 91.7628 35.6385 93.6608C35.513 94.4184 35.0131 95.4915 35.1198 96.2033C34.1312 99.0845 32.8238 102.042 32.4504 105.082C32.0048 108.707 33.102 118.499 32.0338 120.921Z"/>
	<defs>
		<linearGradient id="gradient_11" gradientUnits="userSpaceOnUse" x1="36.606674" y1="89.554672" x2="46.181602" y2="93.209938">
			<stop offset="0" stop-color="#AB763D"/>
			<stop offset="1" stop-color="#CEB58C"/>
		</linearGradient>
	</defs>
	<path fill="url(#gradient_11)" d="M51.8704 53.7329C51.9506 55.7158 50.5885 58.1865 49.8023 59.9586C50.0311 60.3535 50.3347 60.7777 50.4863 61.2058C50.5462 61.3751 50.6192 61.542 50.6856 61.7089C51.0194 61.4865 51.0558 61.3534 51.2283 61.0001C52.0492 63.4814 49.6759 66.427 51.3765 68.9706C50.5769 72.3036 49.144 75.4315 48.2274 78.7251C46.4118 85.249 46.2329 91.2136 42.5883 97.5121C41.8254 99.8106 41.1041 102.086 40.5429 104.445C40.5532 105.868 40.9372 107.133 41.0117 108.525C41.1775 111.624 41.0539 114.955 40.9267 118.061C40.1667 119.393 40.1566 121.054 40.532 122.519L40.7875 123.008C40.4288 123.559 40.0297 123.696 39.4619 124L30.676 124L30.4069 123.371C29.9096 122.897 29.6378 122.305 29.3276 121.703C29.9796 122.173 30.8188 122.935 31.6492 122.91C32.1399 122.222 32.0999 121.758 32.0338 120.921C33.102 118.499 32.0048 108.707 32.4504 105.082C32.8238 102.042 34.1312 99.0845 35.1198 96.2033C35.0131 95.4915 35.513 94.4184 35.6385 93.6608C35.953 91.7628 36.0704 89.8749 36.1354 87.9546L37.1109 86.4706C37.5494 85.5728 38.008 84.7544 38.5896 83.9413C43.8201 74.2659 47.5276 63.8217 51.8704 53.7329Z"/>
	<path fill="#BF8052" d="M37.1109 86.4706C37.5494 85.5728 38.008 84.7544 38.5896 83.9413C38.071 86.6539 38.2268 89.3073 36.9422 91.8334C37.1665 90.1044 37.0685 88.2184 37.1109 86.4706Z"/>
	<path fill="#BB8C4B" d="M36.1354 87.9546L37.1109 86.4706C37.0685 88.2184 37.1665 90.1044 36.9422 91.8334C36.5436 92.9105 35.9051 95.4832 35.1198 96.2033C35.0131 95.4915 35.513 94.4184 35.6385 93.6608C35.953 91.7628 36.0704 89.8749 36.1354 87.9546Z"/>
	<path fill="#6D5026" d="M40.532 122.519L40.7875 123.008C40.4288 123.559 40.0297 123.696 39.4619 124L30.676 124L30.4069 123.371C32.2577 123.658 34.1905 122.755 35.9721 123.21C36.6357 123.237 37.3424 123.318 38.0027 123.248C38.6966 123.239 39.4113 123.198 40.1029 123.239C40.2791 123.061 40.4079 122.741 40.532 122.519Z"/>
	<defs>
		<linearGradient id="gradient_12" gradientUnits="userSpaceOnUse" x1="45.755222" y1="104.0834" x2="30.873829" y2="115.25659">
			<stop offset="0" stop-color="#CDB28B"/>
			<stop offset="1" stop-color="#EAD9B6"/>
		</linearGradient>
	</defs>
	<path fill="url(#gradient_12)" d="M35.9721 123.21C35.0803 120.901 34.9614 117.664 34.9477 115.203C34.8985 106.402 37.4369 98.1775 40.5954 90.0501C40.9502 89.137 41.4527 88.2814 41.7848 87.363C42.4407 85.5485 42.861 83.6425 43.4799 81.8137C43.7583 80.991 44.2137 80.2755 44.4211 79.4235L44.4336 79.3709C44.8 81.0128 39.5228 94.0139 38.7108 96.9036C39.1929 97.4331 40.2732 97.529 40.9843 97.7014C41.2435 98.0343 41.4353 98.3606 41.6217 98.7388L42.2644 97.4938L42.5883 97.5121C41.8254 99.8106 41.1041 102.086 40.5429 104.445C40.5532 105.868 40.9372 107.133 41.0117 108.525C41.1775 111.624 41.0539 114.955 40.9267 118.061C40.1667 119.393 40.1566 121.054 40.532 122.519C40.4079 122.741 40.2791 123.061 40.1029 123.239C39.4113 123.198 38.6966 123.239 38.0027 123.248C37.3424 123.318 36.6357 123.237 35.9721 123.21Z"/>
	<path fill="#BF8052" d="M40.5429 104.445C40.5532 105.868 40.9372 107.133 41.0117 108.525C41.1775 111.624 41.0539 114.955 40.9267 118.061C40.1667 119.393 40.1566 121.054 40.532 122.519C40.4079 122.741 40.2791 123.061 40.1029 123.239C39.4113 123.198 38.6966 123.239 38.0027 123.248C38.1314 118.303 38.7693 113.08 39.7418 108.235C39.9285 106.933 40.1773 105.709 40.5429 104.445Z"/>
	<path fill="#BA7944" d="M40.5429 104.445C40.5532 105.868 40.9372 107.133 41.0117 108.525C41.1775 111.624 41.0539 114.955 40.9267 118.061C40.1667 119.393 40.1566 121.054 40.532 122.519C40.4079 122.741 40.2791 123.061 40.1029 123.239C39.289 120.862 40.0712 116.003 40.0684 113.331C40.0666 111.634 39.8923 109.924 39.7418 108.235C39.9285 106.933 40.1773 105.709 40.5429 104.445Z"/>
	<defs>
		<linearGradient id="gradient_13" gradientUnits="userSpaceOnUse" x1="17.069893" y1="108.24042" x2="41.373158" y2="17.569084">
			<stop offset="0" stop-color="#BF9861"/>
			<stop offset="1" stop-color="#FFE5C8"/>
		</linearGradient>
	</defs>
	<path fill="url(#gradient_13)" d="M51.5715 6.26056L51.6949 6.26755L52.6559 6.7043C52.3331 7.64088 51.816 8.47841 51.3197 9.33029C51.7924 9.42474 52.3961 9.04672 52.8233 8.85365L53.0049 9.15383C53.5688 8.94157 54.0809 8.66823 54.6076 8.37953C54.8281 9.34647 55.2347 10.7643 54.6454 11.6742C53.8789 12.8578 53.0794 11.552 53.0765 14.223C53.3945 14.8602 53.7264 15.6477 54.187 16.1892C55.3431 17.5484 57.6125 18.6469 57.5607 20.6408C57.3577 20.9991 57.1566 21.3484 56.9132 21.6812C57.6714 21.2499 58.3732 20.9042 59.2115 20.657L58.6435 21.764C59.076 21.7109 59.5354 21.6229 59.97 21.6583C59.8153 22.4433 59.8224 22.4567 59.1501 22.9028C58.9298 23.049 58.7035 23.1871 58.4783 23.3257C57.9626 23.5704 57.2998 23.799 56.8761 24.1825C55.5312 24.9408 54.2629 25.7207 53.026 26.6465C48.5743 30.2692 44.1837 34.1955 40.9178 38.969C38.7803 40.5443 36.1873 41.647 34.4885 43.7613C32.1962 46.6143 27.7303 62.152 27.1426 66.0589C26.3292 71.4656 27.2433 76.9718 27.3112 82.4007C27.3398 84.6856 27.1395 86.9814 27.1014 89.2685Q27.0192 96.561 27.2849 103.849C27.4472 107.516 28.9314 116.491 28.0151 119.377C27.4905 118.415 27.0812 117.348 26.6291 116.346C24.911 112.572 22.8779 108.945 22.7295 104.728C22.8296 100.468 22.105 96.1216 22.0463 91.8423C22.0028 89.0103 22.0432 86.145 21.88 83.3187C21.7653 81.3318 21.4601 79.3579 21.3993 77.3672C21.3518 75.8108 21.9265 70.2479 21.3668 69.346L19.9715 69.1556L20.9856 68.861C21.3177 68.0365 20.928 67.3214 20.6876 66.4843L20.2501 66.3478L20.1802 65.8165C18.5527 63.8449 17.5042 62.8981 14.8837 62.6104C16.2971 58.6203 16.3253 56.421 16.7823 52.3593L18.0709 52.3254C18.5313 52.3082 18.8474 52.2716 19.2517 52.0424C19.8432 51.0866 19.635 49.5693 19.6241 48.4746C19.4356 42.9533 19.6584 40.4965 21.6003 35.3052C22.9322 32.9994 23.5562 30.2431 24.9159 27.9002C27.3232 23.7521 35.9688 15.4049 40.3053 13.3515C41.6536 12.7543 42.7946 11.9465 43.9911 11.0969C45.95 9.16112 49.1824 7.64524 51.5715 6.26056Z"/>
	<path fill="#BB8C4B" d="M22.0463 91.8423C22.3829 92.9399 22.5743 97.3121 22.8924 97.775C23.0368 97.985 23.4479 98.2115 23.6675 98.3277C24.5168 98.7771 24.7966 99.9789 25.0773 100.868C25.8779 103.403 25.1617 105.523 25.393 108.06C25.6549 110.933 26.7118 113.388 26.6291 116.346C24.911 112.572 22.8779 108.945 22.7295 104.728C22.8296 100.468 22.105 96.1216 22.0463 91.8423Z"/>
	<path fill="#D3B087" d="M40.3053 13.3515C37.2247 17.2715 32.808 19.8304 29.6408 23.6598C26.9119 26.9592 25.9426 31.0548 24.7538 35.0664C23.7993 38.2872 22.4579 41.454 21.6482 44.7031C20.2363 50.3677 20.9094 56.8741 21.2469 62.6621C21.3057 63.6687 21.4768 64.5301 20.6146 65.2544L20.6876 66.4843L20.2501 66.3478L20.1802 65.8165C18.5527 63.8449 17.5042 62.8981 14.8837 62.6104C16.2971 58.6203 16.3253 56.421 16.7823 52.3593L18.0709 52.3254C18.5313 52.3082 18.8474 52.2716 19.2517 52.0424C19.8432 51.0866 19.635 49.5693 19.6241 48.4746C19.4356 42.9533 19.6584 40.4965 21.6003 35.3052C22.9322 32.9994 23.5562 30.2431 24.9159 27.9002C27.3232 23.7521 35.9688 15.4049 40.3053 13.3515Z"/>
	<defs>
		<linearGradient id="gradient_14" gradientUnits="userSpaceOnUse" x1="20.749607" y1="58.773727" x2="17.663975" y2="58.210495">
			<stop offset="0" stop-color="#FFDFFC"/>
			<stop offset="1" stop-color="#FEADFF"/>
		</linearGradient>
	</defs>
	<path fill="url(#gradient_14)" d="M19.6241 48.4746C19.7068 54.1659 19.7196 59.6087 20.6146 65.2544L20.6876 66.4843L20.2501 66.3478L20.1802 65.8165C18.5527 63.8449 17.5042 62.8981 14.8837 62.6104C16.2971 58.6203 16.3253 56.421 16.7823 52.3593L18.0709 52.3254C18.5313 52.3082 18.8474 52.2716 19.2517 52.0424C19.8432 51.0866 19.635 49.5693 19.6241 48.4746Z"/>
	<path fill="#FCEED9" d="M51.5715 6.26056L51.6949 6.26755L52.6559 6.7043C52.3331 7.64088 51.816 8.47841 51.3197 9.33029C51.7924 9.42474 52.3961 9.04672 52.8233 8.85365L53.0049 9.15383C53.5688 8.94157 54.0809 8.66823 54.6076 8.37953C54.8281 9.34647 55.2347 10.7643 54.6454 11.6742C53.8789 12.8578 53.0794 11.552 53.0765 14.223C53.3945 14.8602 53.7264 15.6477 54.187 16.1892C55.3431 17.5484 57.6125 18.6469 57.5607 20.6408C57.3577 20.9991 57.1566 21.3484 56.9132 21.6812C57.6714 21.2499 58.3732 20.9042 59.2115 20.657L58.6435 21.764C59.076 21.7109 59.5354 21.6229 59.97 21.6583C59.8153 22.4433 59.8224 22.4567 59.1501 22.9028C58.9298 23.049 58.7035 23.1871 58.4783 23.3257C57.9626 23.5704 57.2998 23.799 56.8761 24.1825C55.5312 24.9408 54.2629 25.7207 53.026 26.6465C52.426 26.3105 51.7993 26.1949 51.2543 25.7368L51.4704 24.765C50.6741 25.2812 49.7871 26.2786 48.8998 26.392L47.8261 25.6521C46.8385 26.0224 46.6456 27.6949 45.4809 28.1456C44.7759 27.8923 44.0978 27.5683 43.4159 27.2593L43.4859 26.883C43.8591 26.5811 44.0345 25.8003 44.1976 25.3503C43.4978 24.336 43.1523 22.9467 42.087 22.3127L41.0542 22.9757C40.178 23.9444 39.4757 25.0233 38.7311 26.0918C37.44 27.9446 36.7471 29.4545 34.3426 29.8392C33.5457 29.9667 33.2531 29.9172 32.5991 29.4553C32.7128 28.0622 43.9108 13.9809 43.9911 11.0969C45.95 9.16112 49.1824 7.64524 51.5715 6.26056Z"/>
	<path fill="#D3B087" d="M56.9132 21.6812C57.6714 21.2499 58.3732 20.9042 59.2115 20.657L58.6435 21.764C59.076 21.7109 59.5354 21.6229 59.97 21.6583C59.8153 22.4433 59.8224 22.4567 59.1501 22.9028C58.9298 23.049 58.7035 23.1871 58.4783 23.3257C57.9626 23.5704 57.2998 23.799 56.8761 24.1825C55.5312 24.9408 54.2629 25.7207 53.026 26.6465C52.426 26.3105 51.7993 26.1949 51.2543 25.7368L51.4704 24.765C53.4154 24.1016 54.9655 22.4137 56.9132 21.6812Z"/>
	<path fill="#873B04" d="M14.8837 62.6104C17.5042 62.8981 18.5527 63.8449 20.1802 65.8165L20.2501 66.3478L20.6876 66.4843C20.928 67.3214 21.3177 68.0365 20.9856 68.861L19.9715 69.1556L21.3668 69.346C21.9265 70.2479 21.3518 75.8108 21.3993 77.3672C21.4601 79.3579 21.7653 81.3318 21.88 83.3187C22.0432 86.145 22.0028 89.0103 22.0463 91.8423C22.105 96.1216 22.8296 100.468 22.7295 104.728C22.8779 108.945 24.911 112.572 26.6291 116.346C27.0812 117.348 27.4905 118.415 28.0151 119.377C28.3777 120.046 28.8099 121.182 29.3276 121.703C29.6378 122.305 29.9096 122.897 30.4069 123.371L30.676 124L29.2332 124L18.5291 124L6.94411 124L0 124L0 77.2597L0.30301 77.5273L0.438177 77.5574L0.448851 77.2279C0.73907 76.9844 1.00045 76.6756 1.26493 76.4027C2.54504 75.2689 4.04246 74.6147 5.57666 73.9039C5.58034 73.6701 5.60154 73.4447 5.6442 73.2144C6.33696 69.4754 11.9104 64.6368 14.8837 62.6104Z"/>
	<path fill="#F5F3F6" d="M14.8837 62.6104C17.5042 62.8981 18.5527 63.8449 20.1802 65.8165L20.2501 66.3478L20.6876 66.4843C20.928 67.3214 21.3177 68.0365 20.9856 68.861L19.9715 69.1556C14.9225 69.987 10.3133 72.0509 5.57666 73.9039C5.58034 73.6701 5.60154 73.4447 5.6442 73.2144C6.33696 69.4754 11.9104 64.6368 14.8837 62.6104Z"/>
	<path fill="#543D03" d="M0 77.2597L0.30301 77.5273L0.438177 77.5574C0.515629 81.3284 -0.00049341 101.956 1.53691 103.418C1.95302 103.814 2.75349 103.968 3.30975 103.938C4.91249 103.849 8.51699 101.521 9.3142 101.712C10.6589 102.034 12.0931 102.997 13.4389 103.486L15.0264 106.763C17.4657 108.208 20.6531 109.598 23.4001 110.309C23.3579 110.085 23.306 109.923 23.1887 109.728C22.567 108.697 22.1408 105.632 22.2497 104.408C22.5328 104.466 22.5446 104.518 22.7295 104.728C22.8779 108.945 24.911 112.572 26.6291 116.346C27.0812 117.348 27.4905 118.415 28.0151 119.377C28.3777 120.046 28.8099 121.182 29.3276 121.703C29.6378 122.305 29.9096 122.897 30.4069 123.371L30.676 124L29.2332 124L18.5291 124L6.94411 124L0 124L0 77.2597Z"/>
	<path fill="#6D5026" d="M18.7201 123.548C18.1454 123.675 17.6286 123.688 17.0453 123.675C16.5566 123.331 16.3478 123.289 16.2352 122.679C16.6573 122.264 17.0098 122.033 17.6255 121.999C18.2908 121.962 18.621 122.153 19.084 122.591L19.0998 123.237L18.7201 123.548Z"/>
	<path fill="#342718" d="M19.0998 123.237C20.9974 123.294 27.6623 123.024 28.974 123.832C29.0051 123.851 29.0371 123.869 29.0683 123.888C29.1602 123.943 29.1335 123.927 29.2332 124L18.5291 124L18.7201 123.548L19.0998 123.237Z"/>
	<path fill="#C88237" d="M13.0597 117.115C13.6381 117.212 13.8362 117.196 14.2513 117.607C14.4211 118.334 14.2843 119.078 14.1012 119.79C13.7569 121.129 13.0452 122.819 11.8654 123.528C11.5053 123.466 11.0411 123.419 10.7374 123.206C10.655 123.148 10.5155 123.063 10.4981 122.963C10.1732 121.103 12.0294 118.587 13.0597 117.115Z"/>
	<path fill="#C88237" d="M4.23242 120.569C4.21501 118.428 3.73691 113.696 5.27364 112.091C5.31352 112.049 5.35677 112.011 5.3996 111.972L5.94493 112C7.40653 113.759 7.19625 117.264 6.99312 119.439C6.90919 120.338 6.86736 121.759 6.13779 122.368C5.81152 122.64 5.35786 122.71 4.95225 122.795C4.5846 122.134 4.43082 121.299 4.23242 120.569Z"/>
	<path fill="#342718" d="M0 77.2597L0.30301 77.5273Q0.130436 89.9363 0.335054 102.345C0.405032 106.468 0.113553 111.176 1.09603 115.186C1.43909 116.587 2.17972 117.775 3.18161 118.8Q3.32805 118.949 3.47822 119.095L3.5359 118.987C4.05414 119.539 4.07117 119.848 4.23242 120.569C4.43082 121.299 4.5846 122.134 4.95225 122.795C5.71736 122.979 6.38851 123.001 6.82197 123.754C6.86806 123.834 6.90768 123.915 6.94411 124L0 124L0 77.2597Z"/>
	<path fill="#DFA4E9" d="M0 0L4.33007 0L5.93902 0L95.3287 0L97.9579 0L98.6812 0C98.4015 2.01824 98.2744 4.25272 97.6859 6.19906C96.7421 11.1888 96.3904 16.3142 95.8757 21.362C95.718 22.013 95.6214 22.4818 95.0588 22.9129C94.4413 23.2215 93.7103 23.526 93.4753 24.231C93.2669 24.8559 93.2134 25.5758 93.1369 26.2283L92.3653 26.2024C91.6639 25.4172 90.9171 24.6793 90.1706 23.9375C89.1702 22.8078 88.0992 21.7365 87.0524 20.65C86.0347 21.288 85.5089 22.1841 84.8923 23.1864L84.719 23.5772C83.3369 25.5985 82.1644 27.5954 81.1391 29.8191C80.7559 30.6504 80.1419 32.7474 79.6082 33.2902C79.4785 33.4221 79.088 33.5566 78.9117 33.5886C78.6581 33.6345 78.3963 33.6546 78.1394 33.6751C77.308 33.6544 76.4279 34.4952 75.7315 34.9672C75.284 34.4942 74.8273 33.9909 74.3108 33.5927C71.9759 31.7926 69.1683 32.865 66.6204 33.2137C65.7009 33.7253 64.7867 34.2676 63.8092 34.6612C62.7928 35.4242 61.9567 36.2697 61.0929 37.1939C61.0845 36.6419 60.924 36.0641 60.8183 35.5225C60.5827 34.584 60.113 32.0922 60.4635 31.2152C60.4893 31.1506 60.5189 31.0847 60.5379 31.0178C60.6766 30.5304 60.7337 29.7265 60.4836 29.3031C60.2569 29.6124 60.0548 29.9124 59.8862 30.2578L59.8423 30.3485L59.0258 30.0744C58.5403 28.2414 60.8987 26.3018 61.2559 24.5379C61.3664 23.9919 61.2923 23.8826 60.997 23.4477C60.2105 23.0683 59.3165 23.2453 58.4783 23.3257C58.7035 23.1871 58.9298 23.049 59.1501 22.9028C59.8224 22.4567 59.8153 22.4433 59.97 21.6583C59.5354 21.6229 59.076 21.7109 58.6435 21.764L59.2115 20.657C58.3732 20.9042 57.6714 21.2499 56.9132 21.6812C57.1566 21.3484 57.3577 20.9991 57.5607 20.6408C57.6125 18.6469 55.3431 17.5484 54.187 16.1892C53.7264 15.6477 53.3945 14.8602 53.0765 14.223C53.0794 11.552 53.8789 12.8578 54.6454 11.6742C55.2347 10.7643 54.8281 9.34647 54.6076 8.37953C54.0809 8.66823 53.5688 8.94157 53.0049 9.15383L52.8233 8.85365C52.3961 9.04672 51.7924 9.42474 51.3197 9.33029C51.816 8.47841 52.3331 7.64088 52.6559 6.7043L51.6949 6.26755L51.5715 6.26056C49.1824 7.64524 45.95 9.16112 43.9911 11.0969C42.7946 11.9465 41.6536 12.7543 40.3053 13.3515C35.9688 15.4049 27.3232 23.7521 24.9159 27.9002C23.5562 30.2431 22.9322 32.9994 21.6003 35.3052C19.6584 40.4965 19.4356 42.9533 19.6241 48.4746C19.635 49.5693 19.8432 51.0866 19.2517 52.0424C18.8474 52.2716 18.5313 52.3082 18.0709 52.3254L16.7823 52.3593C16.3253 56.421 16.2971 58.6203 14.8837 62.6104C11.9104 64.6368 6.33696 69.4754 5.6442 73.2144C5.60154 73.4447 5.58034 73.6701 5.57666 73.9039C4.04246 74.6147 2.54504 75.2689 1.26493 76.4027C1.00045 76.6756 0.73907 76.9844 0.448851 77.2279L0.438177 77.5574L0.30301 77.5273L0 77.2597L0 4.65894L0 0Z"/>
	<path fill="#ECAAFC" d="M16.7823 52.3593C16.3003 50.8675 15.408 49.4629 14.896 47.9617C13.8537 44.9058 15.0874 40.8911 16.4592 38.0808C17.5536 35.839 18.9814 33.7036 20.2739 31.5702C25.067 23.6586 29.1989 18.693 36.4298 12.8726C39.4881 10.4109 43.0015 7.92843 46.7536 6.65964C48.0751 6.21275 50.2538 5.61256 51.5715 6.26056C49.1824 7.64524 45.95 9.16112 43.9911 11.0969C42.7946 11.9465 41.6536 12.7543 40.3053 13.3515C35.9688 15.4049 27.3232 23.7521 24.9159 27.9002C23.5562 30.2431 22.9322 32.9994 21.6003 35.3052C19.6584 40.4965 19.4356 42.9533 19.6241 48.4746C19.635 49.5693 19.8432 51.0866 19.2517 52.0424C18.8474 52.2716 18.5313 52.3082 18.0709 52.3254L16.7823 52.3593Z"/>
	<path fill="#FAE1F9" d="M18.0709 52.3254C16.3806 49.9184 14.8294 47.421 15.2775 44.3341C15.7691 40.9484 18.9111 37.3205 21.6003 35.3052C19.6584 40.4965 19.4356 42.9533 19.6241 48.4746C19.635 49.5693 19.8432 51.0866 19.2517 52.0424C18.8474 52.2716 18.5313 52.3082 18.0709 52.3254Z"/>
	<path fill="#FAE1F9" d="M77.8383 11.8743C77.7222 11.4956 77.5873 10.9344 77.3385 10.6263C75.7697 8.68311 70.8664 8.44287 68.5929 8.19272L68.3911 7.79548L68.7137 7.52401C71.1477 7.88034 73.6246 8.49723 75.9326 9.34616C78.4915 10.2874 81.0845 11.6542 83.8088 11.9718C86.9038 12.3327 90.445 11.6222 92.7843 9.45204C93.8349 8.47749 94.7197 7.32251 95.8583 6.43849C96.3073 6.08987 96.9288 5.57526 97.5283 5.65111L97.6859 6.19906C96.7421 11.1888 96.3904 16.3142 95.8757 21.362C95.718 22.013 95.6214 22.4818 95.0588 22.9129C94.4413 23.2215 93.7103 23.526 93.4753 24.231C93.2669 24.8559 93.2134 25.5758 93.1369 26.2283L92.3653 26.2024C91.6639 25.4172 90.9171 24.6793 90.1706 23.9375C89.1702 22.8078 88.0992 21.7365 87.0524 20.65L85.2422 18.9157L83.9027 17.5711C81.9276 15.6227 79.9787 13.6436 77.8383 11.8743Z"/>
	<path fill="#F4D4AD" d="M92.3653 26.2024C94.2363 24.2811 91.5145 20.7347 92.6549 18.4446L93.0016 18.3815C94.0387 19.3319 93.6886 21.2 94.7616 22.0148C95.3333 21.9398 95.4657 21.7444 95.8757 21.362C95.718 22.013 95.6214 22.4818 95.0588 22.9129C94.4413 23.2215 93.7103 23.526 93.4753 24.231C93.2669 24.8559 93.2134 25.5758 93.1369 26.2283L92.3653 26.2024Z"/>
	<defs>
		<linearGradient id="gradient_15" gradientUnits="userSpaceOnUse" x1="1.7870535" y1="51.692127" x2="11.851346" y2="52.795635">
			<stop offset="0" stop-color="#6F6C79"/>
			<stop offset="1" stop-color="#A892BD"/>
		</linearGradient>
	</defs>
	<path fill="url(#gradient_15)" d="M20.984 24.0625C20.4196 27.5512 19.1628 30.7838 17.4746 33.8698C15.8285 36.8789 12.3087 40.9102 11.9359 44.3046C11.5151 48.1368 16.1281 54.003 14.7222 56.9726C13.6098 59.3222 8.59753 62.9344 6.6285 65.0181C4.59731 67.1677 2.66312 69.627 0.929912 72.0241C0.587557 68.4896 2.40386 65.3778 2.49385 61.9275C2.62961 56.7227 0.124357 47.6389 4.31026 43.3613C6.61405 41.007 9.42349 39.1722 11.4925 36.5451C13.6804 35.0235 15.944 30.3302 17.6439 27.972C18.6566 26.567 19.7756 25.3007 20.984 24.0625Z"/>
	<defs>
		<linearGradient id="gradient_16" gradientUnits="userSpaceOnUse" x1="74.46627" y1="34.376282" x2="68.722488" y2="7.1483083">
			<stop offset="0" stop-color="#915925"/>
			<stop offset="1" stop-color="#AE834F"/>
		</linearGradient>
	</defs>
	<path fill="url(#gradient_16)" d="M51.6949 6.26755C54.136 4.86595 55.8641 4.30604 58.6396 5.05773C60.5078 5.56368 62.3601 6.1411 64.2225 6.66994C65.3594 6.99218 66.8579 7.54975 67.7964 8.29122L68.4259 8.65861C71.4719 10.2795 74.6815 10.6643 77.8383 11.8743C79.9787 13.6436 81.9276 15.6227 83.9027 17.5711L85.2422 18.9157L87.0524 20.65C86.0347 21.288 85.5089 22.1841 84.8923 23.1864L84.719 23.5772C83.3369 25.5985 82.1644 27.5954 81.1391 29.8191C80.7559 30.6504 80.1419 32.7474 79.6082 33.2902C79.4785 33.4221 79.088 33.5566 78.9117 33.5886C78.6581 33.6345 78.3963 33.6546 78.1394 33.6751C77.308 33.6544 76.4279 34.4952 75.7315 34.9672C75.284 34.4942 74.8273 33.9909 74.3108 33.5927C71.9759 31.7926 69.1683 32.865 66.6204 33.2137C65.7009 33.7253 64.7867 34.2676 63.8092 34.6612C62.7928 35.4242 61.9567 36.2697 61.0929 37.1939C61.0845 36.6419 60.924 36.0641 60.8183 35.5225C60.5827 34.584 60.113 32.0922 60.4635 31.2152C60.4893 31.1506 60.5189 31.0847 60.5379 31.0178C60.6766 30.5304 60.7337 29.7265 60.4836 29.3031C60.2569 29.6124 60.0548 29.9124 59.8862 30.2578L59.8423 30.3485L59.0258 30.0744C58.5403 28.2414 60.8987 26.3018 61.2559 24.5379C61.3664 23.9919 61.2923 23.8826 60.997 23.4477C60.2105 23.0683 59.3165 23.2453 58.4783 23.3257C58.7035 23.1871 58.9298 23.049 59.1501 22.9028C59.8224 22.4567 59.8153 22.4433 59.97 21.6583C59.5354 21.6229 59.076 21.7109 58.6435 21.764L59.2115 20.657C58.3732 20.9042 57.6714 21.2499 56.9132 21.6812C57.1566 21.3484 57.3577 20.9991 57.5607 20.6408C57.6125 18.6469 55.3431 17.5484 54.187 16.1892C53.7264 15.6477 53.3945 14.8602 53.0765 14.223C53.0794 11.552 53.8789 12.8578 54.6454 11.6742C55.2347 10.7643 54.8281 9.34647 54.6076 8.37953C54.0809 8.66823 53.5688 8.94157 53.0049 9.15383L52.8233 8.85365C52.3961 9.04672 51.7924 9.42474 51.3197 9.33029C51.816 8.47841 52.3331 7.64088 52.6559 6.7043L51.6949 6.26755Z"/>
	<path fill="#BA7944" d="M85.2422 18.9157L87.0524 20.65C86.0347 21.288 85.5089 22.1841 84.8923 23.1864C84.7029 22.6228 84.979 22.0362 84.9154 21.4156L84.4818 21.076C83.9119 21.1007 83.4611 21.2328 82.9294 21.4214C83.0231 20.9251 83.0931 20.1113 83.3548 19.6885C83.7169 19.1036 84.6167 19.0675 85.2422 18.9157Z"/>
	<path fill="#BA7944" d="M79.3674 17.7227C80.5861 19.0072 80.4809 21.0894 81.7737 22.2392C81.6629 22.6405 81.3023 23.1594 81.0647 23.5035C80.7258 23.9945 80.3168 24.5248 79.7016 24.6385C78.6794 23.3769 80.1782 20.0989 79.3674 17.7227Z"/>
	<path fill="#BF8052" d="M69.7176 10.184C72.8963 11.168 76.581 13.8713 79.1719 15.895C80.2169 16.7112 81.6133 18.1732 82.8332 18.6431L83.9027 17.5711L85.2422 18.9157C84.6167 19.0675 83.7169 19.1036 83.3548 19.6885C83.0931 20.1113 83.0231 20.9251 82.9294 21.4214C82.5646 21.6874 82.1743 22.0374 81.7737 22.2392C80.4809 21.0894 80.5861 19.0072 79.3674 17.7227C77.5498 13.8007 71.8966 13.9128 69.7176 10.184Z"/>
	<path fill="#CD9F73" d="M68.4259 8.65861C71.4719 10.2795 74.6815 10.6643 77.8383 11.8743C79.9787 13.6436 81.9276 15.6227 83.9027 17.5711L82.8332 18.6431C81.6133 18.1732 80.2169 16.7112 79.1719 15.895C76.581 13.8713 72.8963 11.168 69.7176 10.184C69.6118 9.80137 68.7224 8.98889 68.4259 8.65861Z"/>
	<path fill="#CD9F73" d="M64.1768 18.9376L63.6278 18.5655L63.3562 18.6461C62.8893 18.175 62.5779 17.8719 62.5284 17.1707C64.1361 15.1966 68.0855 16.2375 70.1362 14.4588C71.5925 16.1127 75.8601 20.689 75.7506 22.8118C75.7403 23.0116 75.6903 23.1948 75.6236 23.382C73.1338 22.413 71.6509 17.554 68.952 17.6053C67.5152 17.6326 65.5674 18.4931 64.1768 18.9376Z"/>
	<defs>
		<linearGradient id="gradient_17" gradientUnits="userSpaceOnUse" x1="69.841888" y1="21.743258" x2="62.198528" y2="24.374157">
			<stop offset="0" stop-color="#AB7F4A"/>
			<stop offset="1" stop-color="#DEB384"/>
		</linearGradient>
	</defs>
	<path fill="url(#gradient_17)" d="M59.97 21.6583C59.9906 21.663 60.0112 21.6681 60.032 21.6725C62.0407 22.103 69.5786 19.3442 70.7289 20.9566C70.6873 21.1099 70.6461 21.4319 70.5664 21.5547C70.232 22.07 69.1511 22.6622 68.6603 23.0563C67.9723 23.6087 67.5099 24.3498 66.8642 24.9264C67.6215 27.2473 67.4974 30.9764 66.6204 33.2137C65.7009 33.7253 64.7867 34.2676 63.8092 34.6612C62.7928 35.4242 61.9567 36.2697 61.0929 37.1939C61.0845 36.6419 60.924 36.0641 60.8183 35.5225C60.5827 34.584 60.113 32.0922 60.4635 31.2152C60.4893 31.1506 60.5189 31.0847 60.5379 31.0178C60.6766 30.5304 60.7337 29.7265 60.4836 29.3031C60.2569 29.6124 60.0548 29.9124 59.8862 30.2578L59.8423 30.3485L59.0258 30.0744C58.5403 28.2414 60.8987 26.3018 61.2559 24.5379C61.3664 23.9919 61.2923 23.8826 60.997 23.4477C60.2105 23.0683 59.3165 23.2453 58.4783 23.3257C58.7035 23.1871 58.9298 23.049 59.1501 22.9028C59.8224 22.4567 59.8153 22.4433 59.97 21.6583Z"/>
	<path fill="#CD9F73" d="M66.8642 24.9264C67.6215 27.2473 67.4974 30.9764 66.6204 33.2137C65.7009 33.7253 64.7867 34.2676 63.8092 34.6612C62.7928 35.4242 61.9567 36.2697 61.0929 37.1939C61.0845 36.6419 60.924 36.0641 60.8183 35.5225C61.392 33.4693 60.9291 31.0128 61.4352 28.8233C62.5319 27.5755 63.6253 26.2539 65.3034 25.8329C65.8119 25.7785 66.4413 25.2169 66.8642 24.9264Z"/>
	<path fill="#BA7944" d="M66.8642 24.9264C67.6215 27.2473 67.4974 30.9764 66.6204 33.2137C65.7009 33.7253 64.7867 34.2676 63.8092 34.6612C64.8922 31.9209 63.8683 28.6098 65.3034 25.8329C65.8119 25.7785 66.4413 25.2169 66.8642 24.9264Z"/>
	<defs>
		<linearGradient id="gradient_18" gradientUnits="userSpaceOnUse" x1="68.591858" y1="10.565897" x2="54.56942" y2="13.253296">
			<stop offset="0" stop-color="#A7794D"/>
			<stop offset="1" stop-color="#EFCCA6"/>
		</linearGradient>
	</defs>
	<path fill="url(#gradient_18)" d="M51.6949 6.26755C54.136 4.86595 55.8641 4.30604 58.6396 5.05773C60.5078 5.56368 62.3601 6.1411 64.2225 6.66994C65.3594 6.99218 66.8579 7.54975 67.7964 8.29122C66.0057 9.2227 62.7085 7.39417 61.5771 10.1673C61.7916 10.8156 62.0223 11.0146 62.6441 11.3194C64.8855 12.4181 68.0396 12.4793 69.988 14.0274L70.1362 14.4588C68.0855 16.2375 64.1361 15.1966 62.5284 17.1707C62.5779 17.8719 62.8893 18.175 63.3562 18.6461L63.6278 18.5655L64.1768 18.9376C62.4811 19.4359 60.8772 20.1423 59.2115 20.657C58.3732 20.9042 57.6714 21.2499 56.9132 21.6812C57.1566 21.3484 57.3577 20.9991 57.5607 20.6408C57.6125 18.6469 55.3431 17.5484 54.187 16.1892C53.7264 15.6477 53.3945 14.8602 53.0765 14.223C53.0794 11.552 53.8789 12.8578 54.6454 11.6742C55.2347 10.7643 54.8281 9.34647 54.6076 8.37953C54.0809 8.66823 53.5688 8.94157 53.0049 9.15383L52.8233 8.85365C52.3961 9.04672 51.7924 9.42474 51.3197 9.33029C51.816 8.47841 52.3331 7.64088 52.6559 6.7043L51.6949 6.26755Z"/>
	<defs>
		<linearGradient id="gradient_19" gradientUnits="userSpaceOnUse" x1="18.471172" y1="-11.101277" x2="53.562584" y2="29.900917">
			<stop offset="0" stop-color="#331350"/>
			<stop offset="1" stop-color="#8A4DA5"/>
		</linearGradient>
	</defs>
	<path fill="url(#gradient_19)" d="M0 0L4.33007 0L5.93902 0L95.3287 0C93.1512 2.76277 90.597 7.15728 86.7736 7.6209C83.0333 8.07444 78.5524 5.43552 74.9381 4.471C71.1628 3.46351 67.3338 2.88473 63.4517 2.50505C50.9147 1.27891 42.083 3.89595 32.2349 11.9037C29.28 14.3064 26.3443 16.8832 23.9622 19.8688C22.9879 21.0898 21.6532 22.6477 20.984 24.0625C19.7756 25.3007 18.6566 26.567 17.6439 27.972C15.944 30.3302 13.6804 35.0235 11.4925 36.5451C9.42349 39.1722 6.61405 41.007 4.31026 43.3613C0.124357 47.6389 2.62961 56.7227 2.49385 61.9275C2.40386 65.3778 0.587557 68.4896 0.929912 72.0241C0.911791 73.0943 0.568034 75.5405 1.02638 76.3942L1.26493 76.4027C1.00045 76.6756 0.73907 76.9844 0.448851 77.2279L0.438177 77.5574L0.30301 77.5273L0 77.2597L0 4.65894L0 0Z"/>
	<path fill="#351652" d="M0 0L4.33007 0L5.93902 0C3.81145 2.32154 1.57211 6.43405 0.896471 9.5055C-0.186976 14.4309 0.655994 20.4816 0.82979 25.4887Q1.04675 31.2892 0.49532 37.0676C-0.215582 34.3801 -0.161137 8.30968 0.253597 5.14366L0 4.65894L0 0Z"/>
	<path fill="#342718" d="M0 0L4.33007 0C2.52842 1.45755 1.41799 3.16324 0.253597 5.14366L0 4.65894L0 0Z"/>
	<path fill="#826F8F" d="M0 4.65894L0.253597 5.14366C-0.161137 8.30968 -0.215582 34.3801 0.49532 37.0676Q0.571307 40.0953 0.57336 43.124C0.606763 43.0133 0.641869 42.908 0.693781 42.8042C1.31974 41.5533 4.68938 40.5937 5.95937 40.0029C7.83696 39.1295 9.83916 37.0589 11.4925 36.5451C9.42349 39.1722 6.61405 41.007 4.31026 43.3613C0.124357 47.6389 2.62961 56.7227 2.49385 61.9275C2.40386 65.3778 0.587557 68.4896 0.929912 72.0241C0.911791 73.0943 0.568034 75.5405 1.02638 76.3942L1.26493 76.4027C1.00045 76.6756 0.73907 76.9844 0.448851 77.2279L0.438177 77.5574L0.30301 77.5273L0 77.2597L0 4.65894Z"/>
	<path fill="#3E254A" d="M0 4.65894L0.253597 5.14366C-0.161137 8.30968 -0.215582 34.3801 0.49532 37.0676Q0.571307 40.0953 0.57336 43.124C0.653128 49.8416 0.889814 56.5694 0.781215 63.2867C0.706368 67.9163 0.169111 72.6085 0.448851 77.2279L0.438177 77.5574L0.30301 77.5273L0 77.2597L0 4.65894Z"/>
</svg>
